<svg width="422" height="356" viewBox="0 0 422 356" fill="none" xmlns="http://www.w3.org/2000/svg">
<rect width="422" height="356" rx="30" fill="white"/>
<path d="M37.104 76V73.216H39.312V61.984H37.104V59.2H45.744C46.768 59.2 47.656 59.376 48.408 59.728C49.176 60.064 49.768 60.552 50.184 61.192C50.616 61.816 50.832 62.568 50.832 63.448V63.688C50.832 64.456 50.688 65.088 50.4 65.584C50.112 66.064 49.768 66.44 49.368 66.712C48.984 66.968 48.616 67.152 48.264 67.264V67.696C48.616 67.792 49 67.976 49.416 68.248C49.832 68.504 50.184 68.88 50.472 69.376C50.776 69.872 50.928 70.52 50.928 71.32V71.56C50.928 72.488 50.712 73.288 50.28 73.96C49.848 74.616 49.248 75.12 48.48 75.472C47.728 75.824 46.848 76 45.84 76H37.104ZM42.48 73.12H45.456C46.144 73.12 46.696 72.952 47.112 72.616C47.544 72.28 47.76 71.8 47.76 71.176V70.936C47.76 70.312 47.552 69.832 47.136 69.496C46.72 69.16 46.16 68.992 45.456 68.992H42.48V73.12ZM42.48 66.112H45.408C46.064 66.112 46.6 65.944 47.016 65.608C47.448 65.272 47.664 64.808 47.664 64.216V63.976C47.664 63.368 47.456 62.904 47.04 62.584C46.624 62.248 46.08 62.08 45.408 62.08H42.48V66.112ZM58.1775 76C57.3935 76 56.7535 75.76 56.2575 75.28C55.7775 74.784 55.5375 74.128 55.5375 73.312V66.592H52.5615V64.096H55.5375V60.4H58.5615V64.096H61.8255V66.592H58.5615V72.784C58.5615 73.264 58.7855 73.504 59.2335 73.504H61.5375V76H58.1775ZM64.5628 76V64.096H67.5388V65.44H67.9708C68.1468 64.96 68.4348 64.608 68.8348 64.384C69.2508 64.16 69.7308 64.048 70.2748 64.048H71.7148V66.736H70.2268C69.4588 66.736 68.8268 66.944 68.3308 67.36C67.8348 67.76 67.5868 68.384 67.5868 69.232V76H64.5628ZM74.0784 76V64.096H77.1024V76H74.0784ZM75.5904 62.704C75.0464 62.704 74.5824 62.528 74.1984 62.176C73.8304 61.824 73.6464 61.36 73.6464 60.784C73.6464 60.208 73.8304 59.744 74.1984 59.392C74.5824 59.04 75.0464 58.864 75.5904 58.864C76.1504 58.864 76.6144 59.04 76.9824 59.392C77.3504 59.744 77.5344 60.208 77.5344 60.784C77.5344 61.36 77.3504 61.824 76.9824 62.176C76.6144 62.528 76.1504 62.704 75.5904 62.704ZM80.4534 80.8V64.096H83.4294V65.536H83.8614C84.1334 65.072 84.5574 64.664 85.1334 64.312C85.7094 63.944 86.5334 63.76 87.6054 63.76C88.5654 63.76 89.4534 64 90.2694 64.48C91.0854 64.944 91.7414 65.632 92.2374 66.544C92.7334 67.456 92.9814 68.56 92.9814 69.856V70.24C92.9814 71.536 92.7334 72.64 92.2374 73.552C91.7414 74.464 91.0854 75.16 90.2694 75.64C89.4534 76.104 88.5654 76.336 87.6054 76.336C86.8854 76.336 86.2774 76.248 85.7814 76.072C85.3014 75.912 84.9094 75.704 84.6054 75.448C84.3174 75.176 84.0854 74.904 83.9094 74.632H83.4774V80.8H80.4534ZM86.6934 73.696C87.6374 73.696 88.4134 73.4 89.0214 72.808C89.6454 72.2 89.9574 71.32 89.9574 70.168V69.928C89.9574 68.776 89.6454 67.904 89.0214 67.312C88.3974 66.704 87.6214 66.4 86.6934 66.4C85.7654 66.4 84.9894 66.704 84.3654 67.312C83.7414 67.904 83.4294 68.776 83.4294 69.928V70.168C83.4294 71.32 83.7414 72.2 84.3654 72.808C84.9894 73.4 85.7654 73.696 86.6934 73.696Z" fill="#1789FB"/>
<path d="M36.846 145V143.65H38.61V133.75H36.846V132.4H43.164C43.896 132.4 44.544 132.532 45.108 132.796C45.684 133.06 46.128 133.432 46.44 133.912C46.764 134.38 46.926 134.932 46.926 135.568V135.712C46.926 136.3 46.812 136.786 46.584 137.17C46.356 137.542 46.086 137.836 45.774 138.052C45.462 138.256 45.156 138.406 44.856 138.502V138.754C45.156 138.826 45.468 138.97 45.792 139.186C46.116 139.39 46.386 139.684 46.602 140.068C46.83 140.452 46.944 140.938 46.944 141.526V141.706C46.944 142.39 46.776 142.984 46.44 143.488C46.116 143.98 45.666 144.358 45.09 144.622C44.526 144.874 43.878 145 43.146 145H36.846ZM40.122 143.632H42.984C43.776 143.632 44.382 143.446 44.802 143.074C45.222 142.702 45.432 142.198 45.432 141.562V141.4C45.432 140.764 45.222 140.26 44.802 139.888C44.382 139.516 43.776 139.33 42.984 139.33H40.122V143.632ZM40.122 137.962H43.038C43.758 137.962 44.334 137.782 44.766 137.422C45.198 137.05 45.414 136.564 45.414 135.964V135.784C45.414 135.172 45.198 134.686 44.766 134.326C44.346 133.954 43.77 133.768 43.038 133.768H40.122V137.962ZM52.6344 145C52.1304 145 51.7404 144.862 51.4644 144.586C51.2004 144.31 51.0684 143.932 51.0684 143.452V137.44H48.4224V136.198H51.0684V133.066H52.4904V136.198H55.3704V137.44H52.4904V143.236C52.4904 143.596 52.6644 143.776 53.0124 143.776H54.9744V145H52.6344ZM57.6737 145V136.198H59.0597V137.278H59.3117C59.4677 136.894 59.7077 136.612 60.0317 136.432C60.3557 136.252 60.7817 136.162 61.3097 136.162H62.3537V137.458H61.2197C60.5837 137.458 60.0677 137.638 59.6717 137.998C59.2877 138.346 59.0957 138.892 59.0957 139.636V145H57.6737ZM64.4588 145V136.198H65.8808V145H64.4588ZM65.1788 134.83C64.8668 134.83 64.6028 134.728 64.3868 134.524C64.1828 134.32 64.0808 134.062 64.0808 133.75C64.0808 133.426 64.1828 133.162 64.3868 132.958C64.6028 132.754 64.8668 132.652 65.1788 132.652C65.4908 132.652 65.7488 132.754 65.9528 132.958C66.1568 133.162 66.2588 133.426 66.2588 133.75C66.2588 134.062 66.1568 134.32 65.9528 134.524C65.7488 134.728 65.4908 134.83 65.1788 134.83ZM68.871 148.6V136.198H70.257V137.656H70.509C70.737 137.212 71.103 136.816 71.607 136.468C72.123 136.12 72.837 135.946 73.749 135.946C74.505 135.946 75.195 136.132 75.819 136.504C76.455 136.864 76.959 137.38 77.331 138.052C77.715 138.724 77.907 139.534 77.907 140.482V140.716C77.907 141.652 77.721 142.462 77.349 143.146C76.977 143.83 76.473 144.352 75.837 144.712C75.213 145.072 74.517 145.252 73.749 145.252C73.137 145.252 72.615 145.168 72.183 145C71.763 144.844 71.421 144.64 71.157 144.388C70.893 144.136 70.689 143.878 70.545 143.614H70.293V148.6H68.871ZM73.371 143.992C74.283 143.992 75.021 143.704 75.585 143.128C76.161 142.54 76.449 141.724 76.449 140.68V140.518C76.449 139.474 76.161 138.664 75.585 138.088C75.021 137.5 74.283 137.206 73.371 137.206C72.471 137.206 71.727 137.5 71.139 138.088C70.563 138.664 70.275 139.474 70.275 140.518V140.68C70.275 141.724 70.563 142.54 71.139 143.128C71.727 143.704 72.471 143.992 73.371 143.992ZM86.302 145L84.538 136.198H85.978L87.436 144.046H87.688L89.614 136.198H91.972L93.898 144.046H94.15L95.608 136.198H97.048L95.284 145H92.854L90.91 137.152H90.676L88.732 145H86.302ZM103.348 145.252C102.46 145.252 101.68 145.066 101.008 144.694C100.336 144.31 99.8143 143.776 99.4423 143.092C99.0703 142.408 98.8843 141.616 98.8843 140.716V140.5C98.8843 139.588 99.0703 138.79 99.4423 138.106C99.8143 137.422 100.33 136.894 100.99 136.522C101.65 136.138 102.406 135.946 103.258 135.946C104.086 135.946 104.818 136.126 105.454 136.486C106.09 136.834 106.588 137.338 106.948 137.998C107.308 138.658 107.488 139.432 107.488 140.32V140.968H100.306C100.342 141.916 100.648 142.66 101.224 143.2C101.8 143.728 102.52 143.992 103.384 143.992C104.14 143.992 104.722 143.818 105.13 143.47C105.538 143.122 105.85 142.708 106.066 142.228L107.29 142.822C107.11 143.194 106.858 143.566 106.534 143.938C106.222 144.31 105.808 144.622 105.292 144.874C104.788 145.126 104.14 145.252 103.348 145.252ZM100.324 139.798H106.048C106 138.982 105.718 138.346 105.202 137.89C104.698 137.434 104.05 137.206 103.258 137.206C102.454 137.206 101.794 137.434 101.278 137.89C100.762 138.346 100.444 138.982 100.324 139.798ZM114.847 145.252C113.935 145.252 113.221 145.078 112.705 144.73C112.201 144.382 111.835 143.986 111.607 143.542H111.355V145H109.969V132.4H111.391V137.584H111.643C111.787 137.308 111.991 137.05 112.255 136.81C112.519 136.558 112.861 136.354 113.281 136.198C113.713 136.03 114.235 135.946 114.847 135.946C115.615 135.946 116.311 136.132 116.935 136.504C117.571 136.864 118.075 137.386 118.447 138.07C118.819 138.742 119.005 139.546 119.005 140.482V140.716C119.005 141.652 118.813 142.462 118.429 143.146C118.057 143.83 117.553 144.352 116.917 144.712C116.293 145.072 115.603 145.252 114.847 145.252ZM114.469 143.992C115.381 143.992 116.119 143.704 116.683 143.128C117.259 142.54 117.547 141.724 117.547 140.68V140.518C117.547 139.474 117.259 138.664 116.683 138.088C116.119 137.5 115.381 137.206 114.469 137.206C113.569 137.206 112.825 137.5 112.237 138.088C111.661 138.664 111.373 139.474 111.373 140.518V140.68C111.373 141.724 111.661 142.54 112.237 143.128C112.825 143.704 113.569 143.992 114.469 143.992ZM125.099 145.252C124.007 145.252 123.083 145 122.327 144.496C121.583 143.992 121.133 143.194 120.977 142.102L122.327 141.796C122.423 142.372 122.603 142.828 122.867 143.164C123.131 143.488 123.455 143.722 123.839 143.866C124.235 143.998 124.655 144.064 125.099 144.064C125.759 144.064 126.281 143.932 126.665 143.668C127.049 143.404 127.241 143.05 127.241 142.606C127.241 142.15 127.055 141.832 126.683 141.652C126.323 141.46 125.825 141.304 125.189 141.184L124.451 141.058C123.887 140.962 123.371 140.812 122.903 140.608C122.435 140.404 122.063 140.128 121.787 139.78C121.511 139.432 121.373 138.994 121.373 138.466C121.373 137.674 121.679 137.056 122.291 136.612C122.903 136.168 123.713 135.946 124.721 135.946C125.717 135.946 126.521 136.174 127.133 136.63C127.757 137.074 128.159 137.704 128.339 138.52L127.007 138.862C126.899 138.226 126.641 137.782 126.233 137.53C125.825 137.266 125.321 137.134 124.721 137.134C124.121 137.134 123.647 137.248 123.299 137.476C122.951 137.692 122.777 138.016 122.777 138.448C122.777 138.868 122.939 139.18 123.263 139.384C123.599 139.576 124.043 139.72 124.595 139.816L125.333 139.942C125.957 140.05 126.515 140.2 127.007 140.392C127.511 140.572 127.907 140.836 128.195 141.184C128.495 141.532 128.645 141.988 128.645 142.552C128.645 143.416 128.321 144.082 127.673 144.55C127.037 145.018 126.179 145.252 125.099 145.252ZM131.045 145V136.198H132.467V145H131.045ZM131.765 134.83C131.453 134.83 131.189 134.728 130.973 134.524C130.769 134.32 130.667 134.062 130.667 133.75C130.667 133.426 130.769 133.162 130.973 132.958C131.189 132.754 131.453 132.652 131.765 132.652C132.077 132.652 132.335 132.754 132.539 132.958C132.743 133.162 132.845 133.426 132.845 133.75C132.845 134.062 132.743 134.32 132.539 134.524C132.335 134.728 132.077 134.83 131.765 134.83ZM138.697 145C138.193 145 137.803 144.862 137.527 144.586C137.263 144.31 137.131 143.932 137.131 143.452V137.44H134.485V136.198H137.131V133.066H138.553V136.198H141.433V137.44H138.553V143.236C138.553 143.596 138.727 143.776 139.075 143.776H141.037V145H138.697ZM147.452 145.252C146.564 145.252 145.784 145.066 145.112 144.694C144.44 144.31 143.918 143.776 143.546 143.092C143.174 142.408 142.988 141.616 142.988 140.716V140.5C142.988 139.588 143.174 138.79 143.546 138.106C143.918 137.422 144.434 136.894 145.094 136.522C145.754 136.138 146.51 135.946 147.362 135.946C148.19 135.946 148.922 136.126 149.558 136.486C150.194 136.834 150.692 137.338 151.052 137.998C151.412 138.658 151.592 139.432 151.592 140.32V140.968H144.41C144.446 141.916 144.752 142.66 145.328 143.2C145.904 143.728 146.624 143.992 147.488 143.992C148.244 143.992 148.826 143.818 149.234 143.47C149.642 143.122 149.954 142.708 150.17 142.228L151.394 142.822C151.214 143.194 150.962 143.566 150.638 143.938C150.326 144.31 149.912 144.622 149.396 144.874C148.892 145.126 148.244 145.252 147.452 145.252ZM144.428 139.798H150.152C150.104 138.982 149.822 138.346 149.306 137.89C148.802 137.434 148.154 137.206 147.362 137.206C146.558 137.206 145.898 137.434 145.382 137.89C144.866 138.346 144.548 138.982 144.428 139.798ZM162.421 145.252C161.665 145.252 160.969 145.072 160.333 144.712C159.697 144.352 159.193 143.83 158.821 143.146C158.449 142.462 158.263 141.652 158.263 140.716V140.482C158.263 139.546 158.449 138.742 158.821 138.07C159.193 137.386 159.691 136.864 160.315 136.504C160.951 136.132 161.653 135.946 162.421 135.946C163.033 135.946 163.549 136.03 163.969 136.198C164.401 136.354 164.749 136.558 165.013 136.81C165.277 137.05 165.481 137.308 165.625 137.584H165.877V132.4H167.299V145H165.913V143.542H165.661C165.421 143.986 165.049 144.382 164.545 144.73C164.041 145.078 163.333 145.252 162.421 145.252ZM162.799 143.992C163.711 143.992 164.449 143.704 165.013 143.128C165.589 142.54 165.877 141.724 165.877 140.68V140.518C165.877 139.474 165.589 138.664 165.013 138.088C164.449 137.5 163.711 137.206 162.799 137.206C161.899 137.206 161.155 137.5 160.567 138.088C159.991 138.664 159.703 139.474 159.703 140.518V140.68C159.703 141.724 159.991 142.54 160.567 143.128C161.155 143.704 161.899 143.992 162.799 143.992ZM174.311 145.252C173.423 145.252 172.643 145.066 171.971 144.694C171.299 144.31 170.777 143.776 170.405 143.092C170.033 142.408 169.847 141.616 169.847 140.716V140.5C169.847 139.588 170.033 138.79 170.405 138.106C170.777 137.422 171.293 136.894 171.953 136.522C172.613 136.138 173.369 135.946 174.221 135.946C175.049 135.946 175.781 136.126 176.417 136.486C177.053 136.834 177.551 137.338 177.911 137.998C178.271 138.658 178.451 139.432 178.451 140.32V140.968H171.269C171.305 141.916 171.611 142.66 172.187 143.2C172.763 143.728 173.483 143.992 174.347 143.992C175.103 143.992 175.685 143.818 176.093 143.47C176.501 143.122 176.813 142.708 177.029 142.228L178.253 142.822C178.073 143.194 177.821 143.566 177.497 143.938C177.185 144.31 176.771 144.622 176.255 144.874C175.751 145.126 175.103 145.252 174.311 145.252ZM171.287 139.798H177.011C176.963 138.982 176.681 138.346 176.165 137.89C175.661 137.434 175.013 137.206 174.221 137.206C173.417 137.206 172.757 137.434 172.241 137.89C171.725 138.346 171.407 138.982 171.287 139.798ZM184.478 145.252C183.386 145.252 182.462 145 181.706 144.496C180.962 143.992 180.512 143.194 180.356 142.102L181.706 141.796C181.802 142.372 181.982 142.828 182.246 143.164C182.51 143.488 182.834 143.722 183.218 143.866C183.614 143.998 184.034 144.064 184.478 144.064C185.138 144.064 185.66 143.932 186.044 143.668C186.428 143.404 186.62 143.05 186.62 142.606C186.62 142.15 186.434 141.832 186.062 141.652C185.702 141.46 185.204 141.304 184.568 141.184L183.83 141.058C183.266 140.962 182.75 140.812 182.282 140.608C181.814 140.404 181.442 140.128 181.166 139.78C180.89 139.432 180.752 138.994 180.752 138.466C180.752 137.674 181.058 137.056 181.67 136.612C182.282 136.168 183.092 135.946 184.1 135.946C185.096 135.946 185.9 136.174 186.512 136.63C187.136 137.074 187.538 137.704 187.718 138.52L186.386 138.862C186.278 138.226 186.02 137.782 185.612 137.53C185.204 137.266 184.7 137.134 184.1 137.134C183.5 137.134 183.026 137.248 182.678 137.476C182.33 137.692 182.156 138.016 182.156 138.448C182.156 138.868 182.318 139.18 182.642 139.384C182.978 139.576 183.422 139.72 183.974 139.816L184.712 139.942C185.336 140.05 185.894 140.2 186.386 140.392C186.89 140.572 187.286 140.836 187.574 141.184C187.874 141.532 188.024 141.988 188.024 142.552C188.024 143.416 187.7 144.082 187.052 144.55C186.416 145.018 185.558 145.252 184.478 145.252ZM190.424 145V136.198H191.846V145H190.424ZM191.144 134.83C190.832 134.83 190.568 134.728 190.352 134.524C190.148 134.32 190.046 134.062 190.046 133.75C190.046 133.426 190.148 133.162 190.352 132.958C190.568 132.754 190.832 132.652 191.144 132.652C191.456 132.652 191.714 132.754 191.918 132.958C192.122 133.162 192.224 133.426 192.224 133.75C192.224 134.062 192.122 134.32 191.918 134.524C191.714 134.728 191.456 134.83 191.144 134.83ZM194.404 140.644V140.392C194.404 139.468 194.59 138.676 194.962 138.016C195.334 137.356 195.838 136.846 196.474 136.486C197.11 136.126 197.806 135.946 198.562 135.946C199.486 135.946 200.194 136.126 200.686 136.486C201.19 136.834 201.562 137.224 201.802 137.656H202.054V136.198H203.404V147.052C203.404 147.532 203.272 147.91 203.008 148.186C202.744 148.462 202.36 148.6 201.856 148.6H195.88V147.34H201.478C201.838 147.34 202.018 147.16 202.018 146.8V143.452H201.766C201.622 143.716 201.418 143.974 201.154 144.226C200.89 144.478 200.548 144.688 200.128 144.856C199.708 145.012 199.186 145.09 198.562 145.09C197.806 145.09 197.11 144.91 196.474 144.55C195.838 144.19 195.334 143.68 194.962 143.02C194.59 142.348 194.404 141.556 194.404 140.644ZM198.94 143.83C199.852 143.83 200.59 143.542 201.154 142.966C201.73 142.39 202.018 141.598 202.018 140.59V140.446C202.018 139.426 201.73 138.634 201.154 138.07C200.59 137.494 199.852 137.206 198.94 137.206C198.04 137.206 197.296 137.494 196.708 138.07C196.132 138.634 195.844 139.426 195.844 140.446V140.59C195.844 141.598 196.132 142.39 196.708 142.966C197.296 143.542 198.04 143.83 198.94 143.83ZM206.385 145V136.198H207.771V137.692H208.023C208.215 137.272 208.539 136.894 208.995 136.558C209.463 136.21 210.147 136.036 211.047 136.036C211.707 136.036 212.295 136.174 212.811 136.45C213.339 136.726 213.759 137.134 214.071 137.674C214.383 138.214 214.539 138.88 214.539 139.672V145H213.117V139.78C213.117 138.904 212.895 138.268 212.451 137.872C212.019 137.476 211.431 137.278 210.687 137.278C209.835 137.278 209.139 137.554 208.599 138.106C208.071 138.658 207.807 139.48 207.807 140.572V145H206.385ZM222.047 145V136.198H223.469V145H222.047ZM222.767 134.83C222.455 134.83 222.191 134.728 221.975 134.524C221.771 134.32 221.669 134.062 221.669 133.75C221.669 133.426 221.771 133.162 221.975 132.958C222.191 132.754 222.455 132.652 222.767 132.652C223.079 132.652 223.337 132.754 223.541 132.958C223.745 133.162 223.847 133.426 223.847 133.75C223.847 134.062 223.745 134.32 223.541 134.524C223.337 134.728 223.079 134.83 222.767 134.83ZM230.005 145.252C228.913 145.252 227.989 145 227.233 144.496C226.489 143.992 226.039 143.194 225.883 142.102L227.233 141.796C227.329 142.372 227.509 142.828 227.773 143.164C228.037 143.488 228.361 143.722 228.745 143.866C229.141 143.998 229.561 144.064 230.005 144.064C230.665 144.064 231.187 143.932 231.571 143.668C231.955 143.404 232.147 143.05 232.147 142.606C232.147 142.15 231.961 141.832 231.589 141.652C231.229 141.46 230.731 141.304 230.095 141.184L229.357 141.058C228.793 140.962 228.277 140.812 227.809 140.608C227.341 140.404 226.969 140.128 226.693 139.78C226.417 139.432 226.279 138.994 226.279 138.466C226.279 137.674 226.585 137.056 227.197 136.612C227.809 136.168 228.619 135.946 229.627 135.946C230.623 135.946 231.427 136.174 232.039 136.63C232.663 137.074 233.065 137.704 233.245 138.52L231.913 138.862C231.805 138.226 231.547 137.782 231.139 137.53C230.731 137.266 230.227 137.134 229.627 137.134C229.027 137.134 228.553 137.248 228.205 137.476C227.857 137.692 227.683 138.016 227.683 138.448C227.683 138.868 227.845 139.18 228.169 139.384C228.505 139.576 228.949 139.72 229.501 139.816L230.239 139.942C230.863 140.05 231.421 140.2 231.913 140.392C232.417 140.572 232.813 140.836 233.101 141.184C233.401 141.532 233.551 141.988 233.551 142.552C233.551 143.416 233.227 144.082 232.579 144.55C231.943 145.018 231.085 145.252 230.005 145.252ZM244.12 145.252C243.028 145.252 242.104 145 241.348 144.496C240.604 143.992 240.154 143.194 239.998 142.102L241.348 141.796C241.444 142.372 241.624 142.828 241.888 143.164C242.152 143.488 242.476 143.722 242.86 143.866C243.256 143.998 243.676 144.064 244.12 144.064C244.78 144.064 245.302 143.932 245.686 143.668C246.07 143.404 246.262 143.05 246.262 142.606C246.262 142.15 246.076 141.832 245.704 141.652C245.344 141.46 244.846 141.304 244.21 141.184L243.472 141.058C242.908 140.962 242.392 140.812 241.924 140.608C241.456 140.404 241.084 140.128 240.808 139.78C240.532 139.432 240.394 138.994 240.394 138.466C240.394 137.674 240.7 137.056 241.312 136.612C241.924 136.168 242.734 135.946 243.742 135.946C244.738 135.946 245.542 136.174 246.154 136.63C246.778 137.074 247.18 137.704 247.36 138.52L246.028 138.862C245.92 138.226 245.662 137.782 245.254 137.53C244.846 137.266 244.342 137.134 243.742 137.134C243.142 137.134 242.668 137.248 242.32 137.476C241.972 137.692 241.798 138.016 241.798 138.448C241.798 138.868 241.96 139.18 242.284 139.384C242.62 139.576 243.064 139.72 243.616 139.816L244.354 139.942C244.978 140.05 245.536 140.2 246.028 140.392C246.532 140.572 246.928 140.836 247.216 141.184C247.516 141.532 247.666 141.988 247.666 142.552C247.666 143.416 247.342 144.082 246.694 144.55C246.058 145.018 245.2 145.252 244.12 145.252ZM250.066 145V132.4H251.488V145H250.066ZM258.51 145.252C257.622 145.252 256.842 145.066 256.17 144.694C255.498 144.31 254.976 143.776 254.604 143.092C254.232 142.408 254.046 141.616 254.046 140.716V140.5C254.046 139.588 254.232 138.79 254.604 138.106C254.976 137.422 255.492 136.894 256.152 136.522C256.812 136.138 257.568 135.946 258.42 135.946C259.248 135.946 259.98 136.126 260.616 136.486C261.252 136.834 261.75 137.338 262.11 137.998C262.47 138.658 262.65 139.432 262.65 140.32V140.968H255.468C255.504 141.916 255.81 142.66 256.386 143.2C256.962 143.728 257.682 143.992 258.546 143.992C259.302 143.992 259.884 143.818 260.292 143.47C260.7 143.122 261.012 142.708 261.228 142.228L262.452 142.822C262.272 143.194 262.02 143.566 261.696 143.938C261.384 144.31 260.97 144.622 260.454 144.874C259.95 145.126 259.302 145.252 258.51 145.252ZM255.486 139.798H261.21C261.162 138.982 260.88 138.346 260.364 137.89C259.86 137.434 259.212 137.206 258.42 137.206C257.616 137.206 256.956 137.434 256.44 137.89C255.924 138.346 255.606 138.982 255.486 139.798ZM269.163 145.252C268.275 145.252 267.495 145.066 266.823 144.694C266.151 144.31 265.629 143.776 265.257 143.092C264.885 142.408 264.699 141.616 264.699 140.716V140.5C264.699 139.588 264.885 138.79 265.257 138.106C265.629 137.422 266.145 136.894 266.805 136.522C267.465 136.138 268.221 135.946 269.073 135.946C269.901 135.946 270.633 136.126 271.269 136.486C271.905 136.834 272.403 137.338 272.763 137.998C273.123 138.658 273.303 139.432 273.303 140.32V140.968H266.121C266.157 141.916 266.463 142.66 267.039 143.2C267.615 143.728 268.335 143.992 269.199 143.992C269.955 143.992 270.537 143.818 270.945 143.47C271.353 143.122 271.665 142.708 271.881 142.228L273.105 142.822C272.925 143.194 272.673 143.566 272.349 143.938C272.037 144.31 271.623 144.622 271.107 144.874C270.603 145.126 269.955 145.252 269.163 145.252ZM266.139 139.798H271.863C271.815 138.982 271.533 138.346 271.017 137.89C270.513 137.434 269.865 137.206 269.073 137.206C268.269 137.206 267.609 137.434 267.093 137.89C266.577 138.346 266.259 138.982 266.139 139.798ZM275.783 145V132.4H277.205V139.816H277.457L281.489 136.198H283.469L278.591 140.482L283.613 145H281.651L277.457 141.166H277.205V145H275.783ZM292.792 145.252C292.18 145.252 291.622 145.144 291.118 144.928C290.614 144.712 290.218 144.4 289.93 143.992C289.642 143.584 289.498 143.086 289.498 142.498C289.498 141.898 289.642 141.406 289.93 141.022C290.218 140.626 290.614 140.332 291.118 140.14C291.622 139.936 292.186 139.834 292.81 139.834H295.78V139.186C295.78 138.562 295.594 138.07 295.222 137.71C294.862 137.35 294.322 137.17 293.602 137.17C292.894 137.17 292.342 137.344 291.946 137.692C291.55 138.028 291.28 138.484 291.136 139.06L289.804 138.628C289.948 138.136 290.176 137.692 290.488 137.296C290.8 136.888 291.214 136.564 291.73 136.324C292.258 136.072 292.888 135.946 293.62 135.946C294.748 135.946 295.624 136.24 296.248 136.828C296.872 137.404 297.184 138.22 297.184 139.276V143.254C297.184 143.614 297.352 143.794 297.688 143.794H298.498V145H297.256C296.86 145 296.542 144.892 296.302 144.676C296.062 144.448 295.942 144.148 295.942 143.776V143.686H295.726C295.594 143.914 295.414 144.154 295.186 144.406C294.97 144.646 294.67 144.844 294.286 145C293.902 145.168 293.404 145.252 292.792 145.252ZM292.954 144.028C293.794 144.028 294.472 143.782 294.988 143.29C295.516 142.786 295.78 142.084 295.78 141.184V140.986H292.864C292.3 140.986 291.832 141.112 291.46 141.364C291.1 141.604 290.92 141.97 290.92 142.462C290.92 142.954 291.106 143.338 291.478 143.614C291.862 143.89 292.354 144.028 292.954 144.028ZM300.445 145V136.198H301.831V137.692H302.083C302.275 137.272 302.599 136.894 303.055 136.558C303.523 136.21 304.207 136.036 305.107 136.036C305.767 136.036 306.355 136.174 306.871 136.45C307.399 136.726 307.819 137.134 308.131 137.674C308.443 138.214 308.599 138.88 308.599 139.672V145H307.177V139.78C307.177 138.904 306.955 138.268 306.511 137.872C306.079 137.476 305.491 137.278 304.747 137.278C303.895 137.278 303.199 137.554 302.659 138.106C302.131 138.658 301.867 139.48 301.867 140.572V145H300.445ZM315.21 145.252C314.454 145.252 313.758 145.072 313.122 144.712C312.486 144.352 311.982 143.83 311.61 143.146C311.238 142.462 311.052 141.652 311.052 140.716V140.482C311.052 139.546 311.238 138.742 311.61 138.07C311.982 137.386 312.48 136.864 313.104 136.504C313.74 136.132 314.442 135.946 315.21 135.946C315.822 135.946 316.338 136.03 316.758 136.198C317.19 136.354 317.538 136.558 317.802 136.81C318.066 137.05 318.27 137.308 318.414 137.584H318.666V132.4H320.088V145H318.702V143.542H318.45C318.21 143.986 317.838 144.382 317.334 144.73C316.83 145.078 316.122 145.252 315.21 145.252ZM315.588 143.992C316.5 143.992 317.238 143.704 317.802 143.128C318.378 142.54 318.666 141.724 318.666 140.68V140.518C318.666 139.474 318.378 138.664 317.802 138.088C317.238 137.5 316.5 137.206 315.588 137.206C314.688 137.206 313.944 137.5 313.356 138.088C312.78 138.664 312.492 139.474 312.492 140.518V140.68C312.492 141.724 312.78 142.54 313.356 143.128C313.944 143.704 314.688 143.992 315.588 143.992ZM37.494 168V159.198H38.916V168H37.494ZM38.214 157.83C37.902 157.83 37.638 157.728 37.422 157.524C37.218 157.32 37.116 157.062 37.116 156.75C37.116 156.426 37.218 156.162 37.422 155.958C37.638 155.754 37.902 155.652 38.214 155.652C38.526 155.652 38.784 155.754 38.988 155.958C39.192 156.162 39.294 156.426 39.294 156.75C39.294 157.062 39.192 157.32 38.988 157.524C38.784 157.728 38.526 157.83 38.214 157.83ZM41.9061 168V159.198H43.2921V160.692H43.5441C43.7361 160.272 44.0601 159.894 44.5161 159.558C44.9841 159.21 45.6681 159.036 46.5681 159.036C47.2281 159.036 47.8161 159.174 48.3321 159.45C48.8601 159.726 49.2801 160.134 49.5921 160.674C49.9041 161.214 50.0601 161.88 50.0601 162.672V168H48.6381V162.78C48.6381 161.904 48.4161 161.268 47.9721 160.872C47.5401 160.476 46.9521 160.278 46.2081 160.278C45.3561 160.278 44.6601 160.554 44.1201 161.106C43.5921 161.658 43.3281 162.48 43.3281 163.572V168H41.9061ZM55.9391 168C55.4351 168 55.0451 167.862 54.7691 167.586C54.5051 167.31 54.3731 166.932 54.3731 166.452V160.44H51.7271V159.198H54.3731V156.066H55.7951V159.198H58.6751V160.44H55.7951V166.236C55.7951 166.596 55.9691 166.776 56.3171 166.776H58.2791V168H55.9391ZM64.3444 168.162C63.7084 168.162 63.1204 168.024 62.5804 167.748C62.0524 167.472 61.6324 167.064 61.3204 166.524C61.0204 165.972 60.8704 165.306 60.8704 164.526V159.198H62.2924V164.418C62.2924 165.294 62.5084 165.93 62.9404 166.326C63.3844 166.722 63.9784 166.92 64.7224 166.92C65.5624 166.92 66.2524 166.644 66.7924 166.092C67.3324 165.54 67.6024 164.718 67.6024 163.626V159.198H69.0244V168H67.6384V166.506H67.3864C67.1944 166.926 66.8644 167.31 66.3964 167.658C65.9284 167.994 65.2444 168.162 64.3444 168.162ZM71.9999 168V159.198H73.4219V168H71.9999ZM72.7199 157.83C72.4079 157.83 72.1439 157.728 71.9279 157.524C71.7239 157.32 71.6219 157.062 71.6219 156.75C71.6219 156.426 71.7239 156.162 71.9279 155.958C72.1439 155.754 72.4079 155.652 72.7199 155.652C73.0319 155.652 73.2899 155.754 73.4939 155.958C73.6979 156.162 73.7999 156.426 73.7999 156.75C73.7999 157.062 73.6979 157.32 73.4939 157.524C73.2899 157.728 73.0319 157.83 72.7199 157.83ZM79.652 168C79.148 168 78.758 167.862 78.482 167.586C78.218 167.31 78.086 166.932 78.086 166.452V160.44H75.44V159.198H78.086V156.066H79.508V159.198H82.388V160.44H79.508V166.236C79.508 166.596 79.682 166.776 80.03 166.776H81.992V168H79.652ZM84.6913 168V159.198H86.1133V168H84.6913ZM85.4113 157.83C85.0993 157.83 84.8353 157.728 84.6193 157.524C84.4153 157.32 84.3133 157.062 84.3133 156.75C84.3133 156.426 84.4153 156.162 84.6193 155.958C84.8353 155.754 85.0993 155.652 85.4113 155.652C85.7233 155.652 85.9813 155.754 86.1853 155.958C86.3893 156.162 86.4913 156.426 86.4913 156.75C86.4913 157.062 86.3893 157.32 86.1853 157.524C85.9813 157.728 85.7233 157.83 85.4113 157.83ZM91.3354 168L88.1854 159.198H89.6974L92.3434 166.938H92.5954L95.2414 159.198H96.7534L93.6034 168H91.3354ZM102.469 168.252C101.581 168.252 100.801 168.066 100.129 167.694C99.4574 167.31 98.9354 166.776 98.5634 166.092C98.1914 165.408 98.0054 164.616 98.0054 163.716V163.5C98.0054 162.588 98.1914 161.79 98.5634 161.106C98.9354 160.422 99.4514 159.894 100.111 159.522C100.771 159.138 101.527 158.946 102.379 158.946C103.207 158.946 103.939 159.126 104.575 159.486C105.211 159.834 105.709 160.338 106.069 160.998C106.429 161.658 106.609 162.432 106.609 163.32V163.968H99.4274C99.4634 164.916 99.7694 165.66 100.345 166.2C100.921 166.728 101.641 166.992 102.505 166.992C103.261 166.992 103.843 166.818 104.251 166.47C104.659 166.122 104.971 165.708 105.187 165.228L106.411 165.822C106.231 166.194 105.979 166.566 105.655 166.938C105.343 167.31 104.929 167.622 104.413 167.874C103.909 168.126 103.261 168.252 102.469 168.252ZM99.4454 162.798H105.169C105.121 161.982 104.839 161.346 104.323 160.89C103.819 160.434 103.171 160.206 102.379 160.206C101.575 160.206 100.915 160.434 100.399 160.89C99.8834 161.346 99.5654 161.982 99.4454 162.798ZM108.823 170.25V169.35H109.345C109.777 169.35 109.993 169.134 109.993 168.702V168.126H109.741C109.393 168.126 109.099 168.018 108.859 167.802C108.631 167.586 108.517 167.316 108.517 166.992C108.517 166.644 108.631 166.362 108.859 166.146C109.099 165.93 109.393 165.822 109.741 165.822C110.089 165.822 110.377 165.936 110.605 166.164C110.833 166.392 110.947 166.68 110.947 167.028V168.702C110.947 169.734 110.431 170.25 109.399 170.25H108.823ZM121.578 168.252C120.69 168.252 119.904 168.066 119.22 167.694C118.548 167.322 118.02 166.8 117.636 166.128C117.264 165.444 117.078 164.64 117.078 163.716V163.482C117.078 162.57 117.264 161.772 117.636 161.088C118.02 160.404 118.548 159.876 119.22 159.504C119.904 159.132 120.69 158.946 121.578 158.946C122.466 158.946 123.246 159.132 123.918 159.504C124.602 159.876 125.13 160.404 125.502 161.088C125.886 161.772 126.078 162.57 126.078 163.482V163.716C126.078 164.64 125.886 165.444 125.502 166.128C125.13 166.8 124.602 167.322 123.918 167.694C123.246 168.066 122.466 168.252 121.578 168.252ZM121.578 166.974C122.514 166.974 123.258 166.68 123.81 166.092C124.374 165.492 124.656 164.688 124.656 163.68V163.518C124.656 162.51 124.374 161.712 123.81 161.124C123.258 160.524 122.514 160.224 121.578 160.224C120.654 160.224 119.91 160.524 119.346 161.124C118.782 161.712 118.5 162.51 118.5 163.518V163.68C118.5 164.688 118.782 165.492 119.346 166.092C119.91 166.68 120.654 166.974 121.578 166.974ZM129.995 168V160.44H127.295V159.198H129.995V156.948C129.995 156.468 130.127 156.09 130.391 155.814C130.667 155.538 131.057 155.4 131.561 155.4H133.775V156.624H131.957C131.597 156.624 131.417 156.804 131.417 157.164V159.198H133.631V160.44H131.417V168H129.995ZM135.791 168V160.44H133.631V159.198H135.791V156.948C135.791 156.468 135.923 156.09 136.187 155.814C136.463 155.538 136.853 155.4 137.357 155.4H139.571V156.624H137.735C137.387 156.624 137.213 156.804 137.213 157.164V159.198H139.985V160.44H137.213V168H135.791ZM145.589 168.252C144.701 168.252 143.921 168.066 143.249 167.694C142.577 167.31 142.055 166.776 141.683 166.092C141.311 165.408 141.125 164.616 141.125 163.716V163.5C141.125 162.588 141.311 161.79 141.683 161.106C142.055 160.422 142.571 159.894 143.231 159.522C143.891 159.138 144.647 158.946 145.499 158.946C146.327 158.946 147.059 159.126 147.695 159.486C148.331 159.834 148.829 160.338 149.189 160.998C149.549 161.658 149.729 162.432 149.729 163.32V163.968H142.547C142.583 164.916 142.889 165.66 143.465 166.2C144.041 166.728 144.761 166.992 145.625 166.992C146.381 166.992 146.963 166.818 147.371 166.47C147.779 166.122 148.091 165.708 148.307 165.228L149.531 165.822C149.351 166.194 149.099 166.566 148.775 166.938C148.463 167.31 148.049 167.622 147.533 167.874C147.029 168.126 146.381 168.252 145.589 168.252ZM142.565 162.798H148.289C148.241 161.982 147.959 161.346 147.443 160.89C146.939 160.434 146.291 160.206 145.499 160.206C144.695 160.206 144.035 160.434 143.519 160.89C143.003 161.346 142.685 161.982 142.565 162.798ZM152.209 168V159.198H153.595V160.278H153.847C154.003 159.894 154.243 159.612 154.567 159.432C154.891 159.252 155.317 159.162 155.845 159.162H156.889V160.458H155.755C155.119 160.458 154.603 160.638 154.207 160.998C153.823 161.346 153.631 161.892 153.631 162.636V168H152.209ZM158.994 168V159.198H160.416V168H158.994ZM159.714 157.83C159.402 157.83 159.138 157.728 158.922 157.524C158.718 157.32 158.616 157.062 158.616 156.75C158.616 156.426 158.718 156.162 158.922 155.958C159.138 155.754 159.402 155.652 159.714 155.652C160.026 155.652 160.284 155.754 160.488 155.958C160.692 156.162 160.794 156.426 160.794 156.75C160.794 157.062 160.692 157.32 160.488 157.524C160.284 157.728 160.026 157.83 159.714 157.83ZM163.406 168V159.198H164.792V160.692H165.044C165.236 160.272 165.56 159.894 166.016 159.558C166.484 159.21 167.168 159.036 168.068 159.036C168.728 159.036 169.316 159.174 169.832 159.45C170.36 159.726 170.78 160.134 171.092 160.674C171.404 161.214 171.56 161.88 171.56 162.672V168H170.138V162.78C170.138 161.904 169.916 161.268 169.472 160.872C169.04 160.476 168.452 160.278 167.708 160.278C166.856 160.278 166.16 160.554 165.62 161.106C165.092 161.658 164.828 162.48 164.828 163.572V168H163.406ZM174.013 163.644V163.392C174.013 162.468 174.199 161.676 174.571 161.016C174.943 160.356 175.447 159.846 176.083 159.486C176.719 159.126 177.415 158.946 178.171 158.946C179.095 158.946 179.803 159.126 180.295 159.486C180.799 159.834 181.171 160.224 181.411 160.656H181.663V159.198H183.013V170.052C183.013 170.532 182.881 170.91 182.617 171.186C182.353 171.462 181.969 171.6 181.465 171.6H175.489V170.34H181.087C181.447 170.34 181.627 170.16 181.627 169.8V166.452H181.375C181.231 166.716 181.027 166.974 180.763 167.226C180.499 167.478 180.157 167.688 179.737 167.856C179.317 168.012 178.795 168.09 178.171 168.09C177.415 168.09 176.719 167.91 176.083 167.55C175.447 167.19 174.943 166.68 174.571 166.02C174.199 165.348 174.013 164.556 174.013 163.644ZM178.549 166.83C179.461 166.83 180.199 166.542 180.763 165.966C181.339 165.39 181.627 164.598 181.627 163.59V163.446C181.627 162.426 181.339 161.634 180.763 161.07C180.199 160.494 179.461 160.206 178.549 160.206C177.649 160.206 176.905 160.494 176.317 161.07C175.741 161.634 175.453 162.426 175.453 163.446V163.59C175.453 164.598 175.741 165.39 176.317 165.966C176.905 166.542 177.649 166.83 178.549 166.83ZM194.163 168.252C193.071 168.252 192.147 168 191.391 167.496C190.647 166.992 190.197 166.194 190.041 165.102L191.391 164.796C191.487 165.372 191.667 165.828 191.931 166.164C192.195 166.488 192.519 166.722 192.903 166.866C193.299 166.998 193.719 167.064 194.163 167.064C194.823 167.064 195.345 166.932 195.729 166.668C196.113 166.404 196.305 166.05 196.305 165.606C196.305 165.15 196.119 164.832 195.747 164.652C195.387 164.46 194.889 164.304 194.253 164.184L193.515 164.058C192.951 163.962 192.435 163.812 191.967 163.608C191.499 163.404 191.127 163.128 190.851 162.78C190.575 162.432 190.437 161.994 190.437 161.466C190.437 160.674 190.743 160.056 191.355 159.612C191.967 159.168 192.777 158.946 193.785 158.946C194.781 158.946 195.585 159.174 196.197 159.63C196.821 160.074 197.223 160.704 197.403 161.52L196.071 161.862C195.963 161.226 195.705 160.782 195.297 160.53C194.889 160.266 194.385 160.134 193.785 160.134C193.185 160.134 192.711 160.248 192.363 160.476C192.015 160.692 191.841 161.016 191.841 161.448C191.841 161.868 192.003 162.18 192.327 162.384C192.663 162.576 193.107 162.72 193.659 162.816L194.397 162.942C195.021 163.05 195.579 163.2 196.071 163.392C196.575 163.572 196.971 163.836 197.259 164.184C197.559 164.532 197.709 164.988 197.709 165.552C197.709 166.416 197.385 167.082 196.737 167.55C196.101 168.018 195.243 168.252 194.163 168.252ZM204.141 168.252C203.253 168.252 202.473 168.066 201.801 167.694C201.129 167.31 200.607 166.776 200.235 166.092C199.863 165.408 199.677 164.616 199.677 163.716V163.5C199.677 162.588 199.863 161.79 200.235 161.106C200.607 160.422 201.123 159.894 201.783 159.522C202.443 159.138 203.199 158.946 204.051 158.946C204.879 158.946 205.611 159.126 206.247 159.486C206.883 159.834 207.381 160.338 207.741 160.998C208.101 161.658 208.281 162.432 208.281 163.32V163.968H201.099C201.135 164.916 201.441 165.66 202.017 166.2C202.593 166.728 203.313 166.992 204.177 166.992C204.933 166.992 205.515 166.818 205.923 166.47C206.331 166.122 206.643 165.708 206.859 165.228L208.083 165.822C207.903 166.194 207.651 166.566 207.327 166.938C207.015 167.31 206.601 167.622 206.085 167.874C205.581 168.126 204.933 168.252 204.141 168.252ZM201.117 162.798H206.841C206.793 161.982 206.511 161.346 205.995 160.89C205.491 160.434 204.843 160.206 204.051 160.206C203.247 160.206 202.587 160.434 202.071 160.89C201.555 161.346 201.237 161.982 201.117 162.798ZM213.462 168.252C212.85 168.252 212.292 168.144 211.788 167.928C211.284 167.712 210.888 167.4 210.6 166.992C210.312 166.584 210.168 166.086 210.168 165.498C210.168 164.898 210.312 164.406 210.6 164.022C210.888 163.626 211.284 163.332 211.788 163.14C212.292 162.936 212.856 162.834 213.48 162.834H216.45V162.186C216.45 161.562 216.264 161.07 215.892 160.71C215.532 160.35 214.992 160.17 214.272 160.17C213.564 160.17 213.012 160.344 212.616 160.692C212.22 161.028 211.95 161.484 211.806 162.06L210.474 161.628C210.618 161.136 210.846 160.692 211.158 160.296C211.47 159.888 211.884 159.564 212.4 159.324C212.928 159.072 213.558 158.946 214.29 158.946C215.418 158.946 216.294 159.24 216.918 159.828C217.542 160.404 217.854 161.22 217.854 162.276V166.254C217.854 166.614 218.022 166.794 218.358 166.794H219.168V168H217.926C217.53 168 217.212 167.892 216.972 167.676C216.732 167.448 216.612 167.148 216.612 166.776V166.686H216.396C216.264 166.914 216.084 167.154 215.856 167.406C215.64 167.646 215.34 167.844 214.956 168C214.572 168.168 214.074 168.252 213.462 168.252ZM213.624 167.028C214.464 167.028 215.142 166.782 215.658 166.29C216.186 165.786 216.45 165.084 216.45 164.184V163.986H213.534C212.97 163.986 212.502 164.112 212.13 164.364C211.77 164.604 211.59 164.97 211.59 165.462C211.59 165.954 211.776 166.338 212.148 166.614C212.532 166.89 213.024 167.028 213.624 167.028ZM221.115 168V159.198H222.501V160.296H222.753C222.921 159.984 223.197 159.696 223.581 159.432C223.965 159.168 224.505 159.036 225.201 159.036C225.885 159.036 226.437 159.186 226.857 159.486C227.289 159.786 227.601 160.152 227.793 160.584H228.045C228.249 160.152 228.555 159.786 228.963 159.486C229.383 159.186 229.965 159.036 230.709 159.036C231.297 159.036 231.813 159.156 232.257 159.396C232.701 159.636 233.049 159.984 233.301 160.44C233.565 160.884 233.697 161.418 233.697 162.042V168H232.275V162.168C232.275 161.58 232.101 161.118 231.753 160.782C231.417 160.434 230.943 160.26 230.331 160.26C229.683 160.26 229.149 160.47 228.729 160.89C228.321 161.31 228.117 161.916 228.117 162.708V168H226.695V162.168C226.695 161.58 226.521 161.118 226.173 160.782C225.837 160.434 225.363 160.26 224.751 160.26C224.103 160.26 223.569 160.47 223.149 160.89C222.741 161.31 222.537 161.916 222.537 162.708V168H221.115ZM236.601 168V155.4H238.023V168H236.601ZM245.046 168.252C244.158 168.252 243.378 168.066 242.706 167.694C242.034 167.31 241.512 166.776 241.14 166.092C240.768 165.408 240.582 164.616 240.582 163.716V163.5C240.582 162.588 240.768 161.79 241.14 161.106C241.512 160.422 242.028 159.894 242.688 159.522C243.348 159.138 244.104 158.946 244.956 158.946C245.784 158.946 246.516 159.126 247.152 159.486C247.788 159.834 248.286 160.338 248.646 160.998C249.006 161.658 249.186 162.432 249.186 163.32V163.968H242.004C242.04 164.916 242.346 165.66 242.922 166.2C243.498 166.728 244.218 166.992 245.082 166.992C245.838 166.992 246.42 166.818 246.828 166.47C247.236 166.122 247.548 165.708 247.764 165.228L248.988 165.822C248.808 166.194 248.556 166.566 248.232 166.938C247.92 167.31 247.506 167.622 246.99 167.874C246.486 168.126 245.838 168.252 245.046 168.252ZM242.022 162.798H247.746C247.698 161.982 247.416 161.346 246.9 160.89C246.396 160.434 245.748 160.206 244.956 160.206C244.152 160.206 243.492 160.434 242.976 160.89C242.46 161.346 242.142 161.982 242.022 162.798ZM255.212 168.252C254.12 168.252 253.196 168 252.44 167.496C251.696 166.992 251.246 166.194 251.09 165.102L252.44 164.796C252.536 165.372 252.716 165.828 252.98 166.164C253.244 166.488 253.568 166.722 253.952 166.866C254.348 166.998 254.768 167.064 255.212 167.064C255.872 167.064 256.394 166.932 256.778 166.668C257.162 166.404 257.354 166.05 257.354 165.606C257.354 165.15 257.168 164.832 256.796 164.652C256.436 164.46 255.938 164.304 255.302 164.184L254.564 164.058C254 163.962 253.484 163.812 253.016 163.608C252.548 163.404 252.176 163.128 251.9 162.78C251.624 162.432 251.486 161.994 251.486 161.466C251.486 160.674 251.792 160.056 252.404 159.612C253.016 159.168 253.826 158.946 254.834 158.946C255.83 158.946 256.634 159.174 257.246 159.63C257.87 160.074 258.272 160.704 258.452 161.52L257.12 161.862C257.012 161.226 256.754 160.782 256.346 160.53C255.938 160.266 255.434 160.134 254.834 160.134C254.234 160.134 253.76 160.248 253.412 160.476C253.064 160.692 252.89 161.016 252.89 161.448C252.89 161.868 253.052 162.18 253.376 162.384C253.712 162.576 254.156 162.72 254.708 162.816L255.446 162.942C256.07 163.05 256.628 163.2 257.12 163.392C257.624 163.572 258.02 163.836 258.308 164.184C258.608 164.532 258.758 164.988 258.758 165.552C258.758 166.416 258.434 167.082 257.786 167.55C257.15 168.018 256.292 168.252 255.212 168.252ZM264.704 168.252C263.612 168.252 262.688 168 261.932 167.496C261.188 166.992 260.738 166.194 260.582 165.102L261.932 164.796C262.028 165.372 262.208 165.828 262.472 166.164C262.736 166.488 263.06 166.722 263.444 166.866C263.84 166.998 264.26 167.064 264.704 167.064C265.364 167.064 265.886 166.932 266.27 166.668C266.654 166.404 266.846 166.05 266.846 165.606C266.846 165.15 266.66 164.832 266.288 164.652C265.928 164.46 265.43 164.304 264.794 164.184L264.056 164.058C263.492 163.962 262.976 163.812 262.508 163.608C262.04 163.404 261.668 163.128 261.392 162.78C261.116 162.432 260.978 161.994 260.978 161.466C260.978 160.674 261.284 160.056 261.896 159.612C262.508 159.168 263.318 158.946 264.326 158.946C265.322 158.946 266.126 159.174 266.738 159.63C267.362 160.074 267.764 160.704 267.944 161.52L266.612 161.862C266.504 161.226 266.246 160.782 265.838 160.53C265.43 160.266 264.926 160.134 264.326 160.134C263.726 160.134 263.252 160.248 262.904 160.476C262.556 160.692 262.382 161.016 262.382 161.448C262.382 161.868 262.544 162.18 262.868 162.384C263.204 162.576 263.648 162.72 264.2 162.816L264.938 162.942C265.562 163.05 266.12 163.2 266.612 163.392C267.116 163.572 267.512 163.836 267.8 164.184C268.1 164.532 268.25 164.988 268.25 165.552C268.25 166.416 267.926 167.082 267.278 167.55C266.642 168.018 265.784 168.252 264.704 168.252ZM275.273 168V159.198H276.659V160.692H276.911C277.103 160.272 277.427 159.894 277.883 159.558C278.351 159.21 279.035 159.036 279.935 159.036C280.595 159.036 281.183 159.174 281.699 159.45C282.227 159.726 282.647 160.134 282.959 160.674C283.271 161.214 283.427 161.88 283.427 162.672V168H282.005V162.78C282.005 161.904 281.783 161.268 281.339 160.872C280.907 160.476 280.319 160.278 279.575 160.278C278.723 160.278 278.027 160.554 277.487 161.106C276.959 161.658 276.695 162.48 276.695 163.572V168H275.273ZM289.012 168.252C288.4 168.252 287.842 168.144 287.338 167.928C286.834 167.712 286.438 167.4 286.15 166.992C285.862 166.584 285.718 166.086 285.718 165.498C285.718 164.898 285.862 164.406 286.15 164.022C286.438 163.626 286.834 163.332 287.338 163.14C287.842 162.936 288.406 162.834 289.03 162.834H292V162.186C292 161.562 291.814 161.07 291.442 160.71C291.082 160.35 290.542 160.17 289.822 160.17C289.114 160.17 288.562 160.344 288.166 160.692C287.77 161.028 287.5 161.484 287.356 162.06L286.024 161.628C286.168 161.136 286.396 160.692 286.708 160.296C287.02 159.888 287.434 159.564 287.95 159.324C288.478 159.072 289.108 158.946 289.84 158.946C290.968 158.946 291.844 159.24 292.468 159.828C293.092 160.404 293.404 161.22 293.404 162.276V166.254C293.404 166.614 293.572 166.794 293.908 166.794H294.718V168H293.476C293.08 168 292.762 167.892 292.522 167.676C292.282 167.448 292.162 167.148 292.162 166.776V166.686H291.946C291.814 166.914 291.634 167.154 291.406 167.406C291.19 167.646 290.89 167.844 290.506 168C290.122 168.168 289.624 168.252 289.012 168.252ZM289.174 167.028C290.014 167.028 290.692 166.782 291.208 166.29C291.736 165.786 292 165.084 292 164.184V163.986H289.084C288.52 163.986 288.052 164.112 287.68 164.364C287.32 164.604 287.14 164.97 287.14 165.462C287.14 165.954 287.326 166.338 287.698 166.614C288.082 166.89 288.574 167.028 289.174 167.028ZM298.406 168L295.256 159.198H296.768L299.414 166.938H299.666L302.312 159.198H303.824L300.674 168H298.406ZM305.877 168V159.198H307.299V168H305.877ZM306.597 157.83C306.285 157.83 306.021 157.728 305.805 157.524C305.601 157.32 305.499 157.062 305.499 156.75C305.499 156.426 305.601 156.162 305.805 155.958C306.021 155.754 306.285 155.652 306.597 155.652C306.909 155.652 307.167 155.754 307.371 155.958C307.575 156.162 307.677 156.426 307.677 156.75C307.677 157.062 307.575 157.32 307.371 157.524C307.167 157.728 306.909 157.83 306.597 157.83ZM309.857 163.644V163.392C309.857 162.468 310.043 161.676 310.415 161.016C310.787 160.356 311.291 159.846 311.927 159.486C312.563 159.126 313.259 158.946 314.015 158.946C314.939 158.946 315.647 159.126 316.139 159.486C316.643 159.834 317.015 160.224 317.255 160.656H317.507V159.198H318.857V170.052C318.857 170.532 318.725 170.91 318.461 171.186C318.197 171.462 317.813 171.6 317.309 171.6H311.333V170.34H316.931C317.291 170.34 317.471 170.16 317.471 169.8V166.452H317.219C317.075 166.716 316.871 166.974 316.607 167.226C316.343 167.478 316.001 167.688 315.581 167.856C315.161 168.012 314.639 168.09 314.015 168.09C313.259 168.09 312.563 167.91 311.927 167.55C311.291 167.19 310.787 166.68 310.415 166.02C310.043 165.348 309.857 164.556 309.857 163.644ZM314.393 166.83C315.305 166.83 316.043 166.542 316.607 165.966C317.183 165.39 317.471 164.598 317.471 163.59V163.446C317.471 162.426 317.183 161.634 316.607 161.07C316.043 160.494 315.305 160.206 314.393 160.206C313.493 160.206 312.749 160.494 312.161 161.07C311.585 161.634 311.297 162.426 311.297 163.446V163.59C311.297 164.598 311.585 165.39 312.161 165.966C312.749 166.542 313.493 166.83 314.393 166.83ZM324.538 168.252C323.926 168.252 323.368 168.144 322.864 167.928C322.36 167.712 321.964 167.4 321.676 166.992C321.388 166.584 321.244 166.086 321.244 165.498C321.244 164.898 321.388 164.406 321.676 164.022C321.964 163.626 322.36 163.332 322.864 163.14C323.368 162.936 323.932 162.834 324.556 162.834H327.526V162.186C327.526 161.562 327.34 161.07 326.968 160.71C326.608 160.35 326.068 160.17 325.348 160.17C324.64 160.17 324.088 160.344 323.692 160.692C323.296 161.028 323.026 161.484 322.882 162.06L321.55 161.628C321.694 161.136 321.922 160.692 322.234 160.296C322.546 159.888 322.96 159.564 323.476 159.324C324.004 159.072 324.634 158.946 325.366 158.946C326.494 158.946 327.37 159.24 327.994 159.828C328.618 160.404 328.93 161.22 328.93 162.276V166.254C328.93 166.614 329.098 166.794 329.434 166.794H330.244V168H329.002C328.606 168 328.288 167.892 328.048 167.676C327.808 167.448 327.688 167.148 327.688 166.776V166.686H327.472C327.34 166.914 327.16 167.154 326.932 167.406C326.716 167.646 326.416 167.844 326.032 168C325.648 168.168 325.15 168.252 324.538 168.252ZM324.7 167.028C325.54 167.028 326.218 166.782 326.734 166.29C327.262 165.786 327.526 165.084 327.526 164.184V163.986H324.61C324.046 163.986 323.578 164.112 323.206 164.364C322.846 164.604 322.666 164.97 322.666 165.462C322.666 165.954 322.852 166.338 323.224 166.614C323.608 166.89 324.1 167.028 324.7 167.028ZM334.851 168C334.347 168 333.957 167.862 333.681 167.586C333.417 167.31 333.285 166.932 333.285 166.452V160.44H330.639V159.198H333.285V156.066H334.707V159.198H337.587V160.44H334.707V166.236C334.707 166.596 334.881 166.776 335.229 166.776H337.191V168H334.851ZM339.89 168V159.198H341.312V168H339.89ZM340.61 157.83C340.298 157.83 340.034 157.728 339.818 157.524C339.614 157.32 339.512 157.062 339.512 156.75C339.512 156.426 339.614 156.162 339.818 155.958C340.034 155.754 340.298 155.652 340.61 155.652C340.922 155.652 341.18 155.754 341.384 155.958C341.588 156.162 341.69 156.426 341.69 156.75C341.69 157.062 341.588 157.32 341.384 157.524C341.18 157.728 340.922 157.83 340.61 157.83ZM348.371 168.252C347.483 168.252 346.697 168.066 346.013 167.694C345.341 167.322 344.813 166.8 344.429 166.128C344.057 165.444 343.871 164.64 343.871 163.716V163.482C343.871 162.57 344.057 161.772 344.429 161.088C344.813 160.404 345.341 159.876 346.013 159.504C346.697 159.132 347.483 158.946 348.371 158.946C349.259 158.946 350.039 159.132 350.711 159.504C351.395 159.876 351.923 160.404 352.295 161.088C352.679 161.772 352.871 162.57 352.871 163.482V163.716C352.871 164.64 352.679 165.444 352.295 166.128C351.923 166.8 351.395 167.322 350.711 167.694C350.039 168.066 349.259 168.252 348.371 168.252ZM348.371 166.974C349.307 166.974 350.051 166.68 350.603 166.092C351.167 165.492 351.449 164.688 351.449 163.68V163.518C351.449 162.51 351.167 161.712 350.603 161.124C350.051 160.524 349.307 160.224 348.371 160.224C347.447 160.224 346.703 160.524 346.139 161.124C345.575 161.712 345.293 162.51 345.293 163.518V163.68C345.293 164.688 345.575 165.492 346.139 166.092C346.703 166.68 347.447 166.974 348.371 166.974ZM355.43 168V159.198H356.816V160.692H357.068C357.26 160.272 357.584 159.894 358.04 159.558C358.508 159.21 359.192 159.036 360.092 159.036C360.752 159.036 361.34 159.174 361.856 159.45C362.384 159.726 362.804 160.134 363.116 160.674C363.428 161.214 363.584 161.88 363.584 162.672V168H362.162V162.78C362.162 161.904 361.94 161.268 361.496 160.872C361.064 160.476 360.476 160.278 359.732 160.278C358.88 160.278 358.184 160.554 357.644 161.106C357.116 161.658 356.852 162.48 356.852 163.572V168H355.43ZM39.222 191V183.44H36.522V182.198H39.222V179.948C39.222 179.468 39.354 179.09 39.618 178.814C39.894 178.538 40.284 178.4 40.788 178.4H43.002V179.624H41.184C40.824 179.624 40.644 179.804 40.644 180.164V182.198H43.416V183.44H40.644V191H39.222ZM49.0854 191.252C48.1974 191.252 47.4114 191.066 46.7274 190.694C46.0554 190.322 45.5274 189.8 45.1434 189.128C44.7714 188.444 44.5854 187.64 44.5854 186.716V186.482C44.5854 185.57 44.7714 184.772 45.1434 184.088C45.5274 183.404 46.0554 182.876 46.7274 182.504C47.4114 182.132 48.1974 181.946 49.0854 181.946C49.9734 181.946 50.7534 182.132 51.4254 182.504C52.1094 182.876 52.6374 183.404 53.0094 184.088C53.3934 184.772 53.5854 185.57 53.5854 186.482V186.716C53.5854 187.64 53.3934 188.444 53.0094 189.128C52.6374 189.8 52.1094 190.322 51.4254 190.694C50.7534 191.066 49.9734 191.252 49.0854 191.252ZM49.0854 189.974C50.0214 189.974 50.7654 189.68 51.3174 189.092C51.8814 188.492 52.1634 187.688 52.1634 186.68V186.518C52.1634 185.51 51.8814 184.712 51.3174 184.124C50.7654 183.524 50.0214 183.224 49.0854 183.224C48.1614 183.224 47.4174 183.524 46.8534 184.124C46.2894 184.712 46.0074 185.51 46.0074 186.518V186.68C46.0074 187.688 46.2894 188.492 46.8534 189.092C47.4174 189.68 48.1614 189.974 49.0854 189.974ZM56.1444 191V182.198H57.5304V183.278H57.7824C57.9384 182.894 58.1784 182.612 58.5024 182.432C58.8264 182.252 59.2524 182.162 59.7804 182.162H60.8244V183.458H59.6904C59.0544 183.458 58.5384 183.638 58.1424 183.998C57.7584 184.346 57.5664 184.892 57.5664 185.636V191H56.1444ZM70.7926 191C70.2886 191 69.8986 190.862 69.6226 190.586C69.3586 190.31 69.2266 189.932 69.2266 189.452V183.44H66.5806V182.198H69.2266V179.066H70.6486V182.198H73.5286V183.44H70.6486V189.236C70.6486 189.596 70.8226 189.776 71.1706 189.776H73.1326V191H70.7926ZM75.8319 191V182.198H77.2179V183.278H77.4699C77.6259 182.894 77.8659 182.612 78.1899 182.432C78.5139 182.252 78.9399 182.162 79.4679 182.162H80.5119V183.458H79.3779C78.7419 183.458 78.2259 183.638 77.8299 183.998C77.4459 184.346 77.2539 184.892 77.2539 185.636V191H75.8319ZM85.0182 191.252C84.4062 191.252 83.8482 191.144 83.3442 190.928C82.8402 190.712 82.4442 190.4 82.1562 189.992C81.8682 189.584 81.7242 189.086 81.7242 188.498C81.7242 187.898 81.8682 187.406 82.1562 187.022C82.4442 186.626 82.8402 186.332 83.3442 186.14C83.8482 185.936 84.4122 185.834 85.0362 185.834H88.0062V185.186C88.0062 184.562 87.8202 184.07 87.4482 183.71C87.0882 183.35 86.5482 183.17 85.8282 183.17C85.1202 183.17 84.5682 183.344 84.1722 183.692C83.7762 184.028 83.5062 184.484 83.3622 185.06L82.0302 184.628C82.1742 184.136 82.4022 183.692 82.7142 183.296C83.0262 182.888 83.4402 182.564 83.9562 182.324C84.4842 182.072 85.1142 181.946 85.8462 181.946C86.9742 181.946 87.8502 182.24 88.4742 182.828C89.0982 183.404 89.4102 184.22 89.4102 185.276V189.254C89.4102 189.614 89.5782 189.794 89.9142 189.794H90.7242V191H89.4822C89.0862 191 88.7682 190.892 88.5282 190.676C88.2882 190.448 88.1682 190.148 88.1682 189.776V189.686H87.9522C87.8202 189.914 87.6402 190.154 87.4122 190.406C87.1962 190.646 86.8962 190.844 86.5122 191C86.1282 191.168 85.6302 191.252 85.0182 191.252ZM85.1802 190.028C86.0202 190.028 86.6982 189.782 87.2142 189.29C87.7422 188.786 88.0062 188.084 88.0062 187.184V186.986H85.0902C84.5262 186.986 84.0582 187.112 83.6862 187.364C83.3262 187.604 83.1462 187.97 83.1462 188.462C83.1462 188.954 83.3322 189.338 83.7042 189.614C84.0882 189.89 84.5802 190.028 85.1802 190.028ZM94.4115 191L91.2615 182.198H92.7735L95.4195 189.938H95.6715L98.3175 182.198H99.8295L96.6795 191H94.4115ZM105.546 191.252C104.658 191.252 103.878 191.066 103.206 190.694C102.534 190.31 102.012 189.776 101.64 189.092C101.268 188.408 101.082 187.616 101.082 186.716V186.5C101.082 185.588 101.268 184.79 101.64 184.106C102.012 183.422 102.528 182.894 103.188 182.522C103.848 182.138 104.604 181.946 105.456 181.946C106.284 181.946 107.016 182.126 107.652 182.486C108.288 182.834 108.786 183.338 109.146 183.998C109.506 184.658 109.686 185.432 109.686 186.32V186.968H102.504C102.54 187.916 102.846 188.66 103.422 189.2C103.998 189.728 104.718 189.992 105.582 189.992C106.338 189.992 106.92 189.818 107.328 189.47C107.736 189.122 108.048 188.708 108.264 188.228L109.488 188.822C109.308 189.194 109.056 189.566 108.732 189.938C108.42 190.31 108.006 190.622 107.49 190.874C106.986 191.126 106.338 191.252 105.546 191.252ZM102.522 185.798H108.246C108.198 184.982 107.916 184.346 107.4 183.89C106.896 183.434 106.248 183.206 105.456 183.206C104.652 183.206 103.992 183.434 103.476 183.89C102.96 184.346 102.642 184.982 102.522 185.798ZM112.166 191V178.4H113.588V191H112.166ZM120.61 191.252C119.722 191.252 118.942 191.066 118.27 190.694C117.598 190.31 117.076 189.776 116.704 189.092C116.332 188.408 116.146 187.616 116.146 186.716V186.5C116.146 185.588 116.332 184.79 116.704 184.106C117.076 183.422 117.592 182.894 118.252 182.522C118.912 182.138 119.668 181.946 120.52 181.946C121.348 181.946 122.08 182.126 122.716 182.486C123.352 182.834 123.85 183.338 124.21 183.998C124.57 184.658 124.75 185.432 124.75 186.32V186.968H117.568C117.604 187.916 117.91 188.66 118.486 189.2C119.062 189.728 119.782 189.992 120.646 189.992C121.402 189.992 121.984 189.818 122.392 189.47C122.8 189.122 123.112 188.708 123.328 188.228L124.552 188.822C124.372 189.194 124.12 189.566 123.796 189.938C123.484 190.31 123.07 190.622 122.554 190.874C122.05 191.126 121.402 191.252 120.61 191.252ZM117.586 185.798H123.31C123.262 184.982 122.98 184.346 122.464 183.89C121.96 183.434 121.312 183.206 120.52 183.206C119.716 183.206 119.056 183.434 118.54 183.89C118.024 184.346 117.706 184.982 117.586 185.798ZM127.23 191V182.198H128.616V183.278H128.868C129.024 182.894 129.264 182.612 129.588 182.432C129.912 182.252 130.338 182.162 130.866 182.162H131.91V183.458H130.776C130.14 183.458 129.624 183.638 129.228 183.998C128.844 184.346 128.652 184.892 128.652 185.636V191H127.23ZM137.386 191.252C136.294 191.252 135.37 191 134.614 190.496C133.87 189.992 133.42 189.194 133.264 188.102L134.614 187.796C134.71 188.372 134.89 188.828 135.154 189.164C135.418 189.488 135.742 189.722 136.126 189.866C136.522 189.998 136.942 190.064 137.386 190.064C138.046 190.064 138.568 189.932 138.952 189.668C139.336 189.404 139.528 189.05 139.528 188.606C139.528 188.15 139.342 187.832 138.97 187.652C138.61 187.46 138.112 187.304 137.476 187.184L136.738 187.058C136.174 186.962 135.658 186.812 135.19 186.608C134.722 186.404 134.35 186.128 134.074 185.78C133.798 185.432 133.66 184.994 133.66 184.466C133.66 183.674 133.966 183.056 134.578 182.612C135.19 182.168 136 181.946 137.008 181.946C138.004 181.946 138.808 182.174 139.42 182.63C140.044 183.074 140.446 183.704 140.626 184.52L139.294 184.862C139.186 184.226 138.928 183.782 138.52 183.53C138.112 183.266 137.608 183.134 137.008 183.134C136.408 183.134 135.934 183.248 135.586 183.476C135.238 183.692 135.064 184.016 135.064 184.448C135.064 184.868 135.226 185.18 135.55 185.384C135.886 185.576 136.33 185.72 136.882 185.816L137.62 185.942C138.244 186.05 138.802 186.2 139.294 186.392C139.798 186.572 140.194 186.836 140.482 187.184C140.782 187.532 140.932 187.988 140.932 188.552C140.932 189.416 140.608 190.082 139.96 190.55C139.324 191.018 138.466 191.252 137.386 191.252ZM144.106 191.252C143.758 191.252 143.464 191.138 143.224 190.91C142.996 190.682 142.882 190.388 142.882 190.028C142.882 189.668 142.996 189.374 143.224 189.146C143.464 188.918 143.758 188.804 144.106 188.804C144.466 188.804 144.76 188.918 144.988 189.146C145.216 189.374 145.33 189.668 145.33 190.028C145.33 190.388 145.216 190.682 144.988 190.91C144.76 191.138 144.466 191.252 144.106 191.252Z" fill="#252432"/>
<path d="M37.44 295V282.4H45.198V283.768H38.952V287.98H44.694V289.348H38.952V293.632H45.288V295H37.44ZM46.9166 295L50.4446 290.536L47.0246 286.198H48.7346L51.3626 289.6H51.6146L54.2246 286.198H55.9526L52.5146 290.536L56.0426 295H54.3146L51.6146 291.49H51.3626L48.6626 295H46.9166ZM58.3065 298.6V286.198H59.6925V287.656H59.9445C60.1725 287.212 60.5385 286.816 61.0425 286.468C61.5585 286.12 62.2725 285.946 63.1845 285.946C63.9405 285.946 64.6305 286.132 65.2545 286.504C65.8905 286.864 66.3945 287.38 66.7665 288.052C67.1505 288.724 67.3425 289.534 67.3425 290.482V290.716C67.3425 291.652 67.1565 292.462 66.7845 293.146C66.4125 293.83 65.9085 294.352 65.2725 294.712C64.6485 295.072 63.9525 295.252 63.1845 295.252C62.5725 295.252 62.0505 295.168 61.6185 295C61.1985 294.844 60.8565 294.64 60.5925 294.388C60.3285 294.136 60.1245 293.878 59.9805 293.614H59.7285V298.6H58.3065ZM62.8065 293.992C63.7185 293.992 64.4565 293.704 65.0205 293.128C65.5965 292.54 65.8845 291.724 65.8845 290.68V290.518C65.8845 289.474 65.5965 288.664 65.0205 288.088C64.4565 287.5 63.7185 287.206 62.8065 287.206C61.9065 287.206 61.1625 287.5 60.5745 288.088C59.9985 288.664 59.7105 289.474 59.7105 290.518V290.68C59.7105 291.724 59.9985 292.54 60.5745 293.128C61.1625 293.704 61.9065 293.992 62.8065 293.992ZM69.8905 295V282.4H71.3125V295H69.8905ZM78.3706 295.252C77.4826 295.252 76.6966 295.066 76.0126 294.694C75.3406 294.322 74.8126 293.8 74.4286 293.128C74.0566 292.444 73.8706 291.64 73.8706 290.716V290.482C73.8706 289.57 74.0566 288.772 74.4286 288.088C74.8126 287.404 75.3406 286.876 76.0126 286.504C76.6966 286.132 77.4826 285.946 78.3706 285.946C79.2586 285.946 80.0386 286.132 80.7106 286.504C81.3946 286.876 81.9226 287.404 82.2946 288.088C82.6786 288.772 82.8706 289.57 82.8706 290.482V290.716C82.8706 291.64 82.6786 292.444 82.2946 293.128C81.9226 293.8 81.3946 294.322 80.7106 294.694C80.0386 295.066 79.2586 295.252 78.3706 295.252ZM78.3706 293.974C79.3066 293.974 80.0506 293.68 80.6026 293.092C81.1666 292.492 81.4486 291.688 81.4486 290.68V290.518C81.4486 289.51 81.1666 288.712 80.6026 288.124C80.0506 287.524 79.3066 287.224 78.3706 287.224C77.4466 287.224 76.7026 287.524 76.1386 288.124C75.5746 288.712 75.2926 289.51 75.2926 290.518V290.68C75.2926 291.688 75.5746 292.492 76.1386 293.092C76.7026 293.68 77.4466 293.974 78.3706 293.974ZM85.4295 295V286.198H86.8155V287.278H87.0675C87.2235 286.894 87.4635 286.612 87.7875 286.432C88.1115 286.252 88.5375 286.162 89.0655 286.162H90.1095V287.458H88.9755C88.3395 287.458 87.8235 287.638 87.4275 287.998C87.0435 288.346 86.8515 288.892 86.8515 289.636V295H85.4295ZM95.9303 295.252C95.0423 295.252 94.2623 295.066 93.5903 294.694C92.9183 294.31 92.3963 293.776 92.0243 293.092C91.6523 292.408 91.4663 291.616 91.4663 290.716V290.5C91.4663 289.588 91.6523 288.79 92.0243 288.106C92.3963 287.422 92.9123 286.894 93.5723 286.522C94.2323 286.138 94.9883 285.946 95.8403 285.946C96.6683 285.946 97.4003 286.126 98.0363 286.486C98.6723 286.834 99.1703 287.338 99.5303 287.998C99.8903 288.658 100.07 289.432 100.07 290.32V290.968H92.8883C92.9243 291.916 93.2303 292.66 93.8063 293.2C94.3823 293.728 95.1023 293.992 95.9663 293.992C96.7223 293.992 97.3043 293.818 97.7123 293.47C98.1203 293.122 98.4323 292.708 98.6483 292.228L99.8723 292.822C99.6923 293.194 99.4403 293.566 99.1163 293.938C98.8043 294.31 98.3903 294.622 97.8743 294.874C97.3703 295.126 96.7223 295.252 95.9303 295.252ZM92.9063 289.798H98.6303C98.5823 288.982 98.3003 288.346 97.7843 287.89C97.2803 287.434 96.6323 287.206 95.8403 287.206C95.0363 287.206 94.3763 287.434 93.8603 287.89C93.3443 288.346 93.0263 288.982 92.9063 289.798Z" fill="#252432"/>
<path d="M36 297.25H101.06V298.15H36V297.25Z" fill="#252432"/>
</svg>
