<svg width="27" height="27" viewBox="0 0 27 27" fill="none" xmlns="http://www.w3.org/2000/svg">
<g clip-path="url(#clip0_287_1891)">
<path d="M0.576162 13.3383C0.575529 15.6069 1.1729 17.8219 2.3088 19.7743L0.467529 26.445L7.34747 24.655C9.25037 25.6829 11.3824 26.2215 13.549 26.2216H13.5547C20.7071 26.2216 26.5293 20.4467 26.5323 13.3485C26.5337 9.90891 25.185 6.67456 22.7345 4.24122C20.2845 1.80808 17.026 0.46739 13.5542 0.46582C6.40099 0.46582 0.579221 6.24047 0.576268 13.3383" fill="url(#paint0_linear_287_1891)"/>
<path d="M10.1966 7.75943C9.94491 7.20447 9.68008 7.19327 9.44077 7.18354C9.24481 7.17516 9.0208 7.17579 8.79699 7.17579C8.57298 7.17579 8.209 7.25941 7.90135 7.59272C7.59338 7.92635 6.72559 8.73258 6.72559 10.3724C6.72559 12.0121 7.9293 13.597 8.0971 13.8196C8.26511 14.0417 10.4209 17.5145 13.8351 18.8505C16.6727 19.9607 17.2501 19.7399 17.8659 19.6842C18.4819 19.6288 19.8534 18.8782 20.1332 18.0999C20.4132 17.3217 20.4132 16.6547 20.3293 16.5153C20.2453 16.3764 20.0213 16.293 19.6854 16.1264C19.3495 15.9598 17.6979 15.1534 17.3901 15.0421C17.0821 14.931 16.8582 14.8755 16.6342 15.2092C16.4101 15.5424 15.7669 16.293 15.5708 16.5153C15.375 16.7381 15.1789 16.7658 14.8431 16.5991C14.507 16.4319 13.4252 16.0803 12.1417 14.945C11.1431 14.0615 10.469 12.9705 10.273 12.6368C10.0771 12.3036 10.252 12.123 10.4205 11.9569C10.5714 11.8075 10.7565 11.5677 10.9246 11.3731C11.0921 11.1785 11.148 11.0396 11.26 10.8173C11.3721 10.5949 11.316 10.4002 11.2322 10.2335C11.148 10.0668 10.4952 8.41842 10.1966 7.75943Z" fill="white"/>
</g>
<defs>
<linearGradient id="paint0_linear_287_1891" x1="1303.71" y1="2598.38" x2="1303.71" y2="0.46582" gradientUnits="userSpaceOnUse">
<stop stop-color="#1FAF38"/>
<stop offset="1" stop-color="#60D669"/>
</linearGradient>
<clipPath id="clip0_287_1891">
<rect width="27" height="27" fill="white"/>
</clipPath>
</defs>
</svg>
