<svg width="29" height="29" viewBox="0 0 29 29" fill="none" xmlns="http://www.w3.org/2000/svg">
<path d="M6.60824 17.6924V10.6924H11.1082V11.8924H7.92824V13.5624H10.8282V14.7624H7.92824V16.4924H11.1682V17.6924H6.60824ZM12.1454 17.6924V10.6924H15.1854C15.6254 10.6924 16.0087 10.769 16.3354 10.9224C16.662 11.0757 16.9154 11.2924 17.0954 11.5724C17.2754 11.8524 17.3654 12.1824 17.3654 12.5624V12.6824C17.3654 13.1024 17.2654 13.4424 17.0654 13.7024C16.8654 13.9624 16.6187 14.1524 16.3254 14.2724V14.4524C16.592 14.4657 16.7987 14.559 16.9454 14.7324C17.092 14.899 17.1654 15.1224 17.1654 15.4024V17.6924H15.8454V15.5924C15.8454 15.4324 15.802 15.3024 15.7154 15.2024C15.6354 15.1024 15.4987 15.0524 15.3054 15.0524H13.4654V17.6924H12.1454ZM13.4654 13.8524H15.0454C15.3587 13.8524 15.602 13.769 15.7754 13.6024C15.9554 13.429 16.0454 13.2024 16.0454 12.9224V12.8224C16.0454 12.5424 15.9587 12.319 15.7854 12.1524C15.612 11.979 15.3654 11.8924 15.0454 11.8924H13.4654V13.8524ZM18.4637 17.6924V10.6924H21.3437C21.7837 10.6924 22.1704 10.7824 22.5037 10.9624C22.8437 11.1357 23.107 11.3824 23.2937 11.7024C23.487 12.0224 23.5837 12.4024 23.5837 12.8424V12.9824C23.5837 13.4157 23.4837 13.7957 23.2837 14.1224C23.0904 14.4424 22.8237 14.6924 22.4837 14.8724C22.1504 15.0457 21.7704 15.1324 21.3437 15.1324H19.7837V17.6924H18.4637ZM19.7837 13.9324H21.2137C21.527 13.9324 21.7804 13.8457 21.9737 13.6724C22.167 13.499 22.2637 13.2624 22.2637 12.9624V12.8624C22.2637 12.5624 22.167 12.3257 21.9737 12.1524C21.7804 11.979 21.527 11.8924 21.2137 11.8924H19.7837V13.9324Z" fill="white"/>
<circle cx="14.5" cy="14.5" r="13.5" stroke="white" stroke-width="2"/>
</svg>
