<svg width="74" height="74" viewBox="0 0 74 74" fill="none" xmlns="http://www.w3.org/2000/svg">
<path fill-rule="evenodd" clip-rule="evenodd" d="M30.7642 3.84552C30.7642 2.82563 30.359 1.8475 29.6378 1.12633C28.9167 0.405152 27.9385 0 26.9187 0C25.8988 0 24.9206 0.405152 24.1995 1.12633C23.4783 1.8475 23.0731 2.82563 23.0731 3.84552V11.5366C23.0731 12.5565 23.4783 13.5346 24.1995 14.2558C24.9206 14.9769 25.8988 15.3821 26.9187 15.3821C27.9385 15.3821 28.9167 14.9769 29.6378 14.2558C30.359 13.5346 30.7642 12.5565 30.7642 11.5366V3.84552ZM13.3209 7.88332C12.9662 7.51603 12.5418 7.22307 12.0726 7.02153C11.6035 6.81999 11.0989 6.71391 10.5883 6.70947C10.0777 6.70504 9.57128 6.80233 9.09868 6.99569C8.62608 7.18905 8.19672 7.47459 7.83565 7.83565C7.47459 8.19672 7.18905 8.62608 6.99569 9.09868C6.80233 9.57128 6.70504 10.0777 6.70947 10.5883C6.71391 11.0989 6.81999 11.6035 7.02153 12.0726C7.22307 12.5418 7.51603 12.9662 7.88332 13.3209L13.3209 18.7661C13.6784 19.1237 14.1029 19.4073 14.57 19.6008C15.0372 19.7943 15.5379 19.8939 16.0435 19.8939C16.5492 19.8939 17.0498 19.7943 17.517 19.6008C17.9841 19.4073 18.4086 19.1237 18.7661 18.7661C19.1237 18.4086 19.4073 17.9841 19.6008 17.517C19.7943 17.0498 19.8939 16.5492 19.8939 16.0435C19.8939 15.5379 19.7943 15.0372 19.6008 14.57C19.4073 14.1029 19.1237 13.6784 18.7661 13.3209L13.3209 7.88332ZM29.9605 23.8807C26.1995 22.6271 22.6271 26.1995 23.8768 29.9566L37.4631 70.7115C38.8359 74.8339 44.5388 75.1646 46.3808 71.2268L54.2834 54.2834L71.2268 46.3808C75.1646 44.5427 74.8339 38.8359 70.7115 37.4631L29.9605 23.8807ZM45.954 7.88332C46.6749 8.60446 47.0799 9.58241 47.0799 10.6021C47.0799 11.6218 46.6749 12.5997 45.954 13.3209L40.5164 18.7661C40.1591 19.1234 39.735 19.4069 39.2681 19.6002C38.8013 19.7936 38.301 19.8931 37.7957 19.8931C37.2904 19.8931 36.7901 19.7936 36.3233 19.6002C35.8565 19.4069 35.4323 19.1234 35.075 18.7661C34.7177 18.4089 34.4343 17.9847 34.2409 17.5179C34.0476 17.0511 33.9481 16.5507 33.9481 16.0454C33.9481 15.5402 34.0476 15.0398 34.2409 14.573C34.4343 14.1062 34.7177 13.682 35.075 13.3247L40.5164 7.88717C41.2376 7.16624 42.2155 6.76125 43.2352 6.76125C44.2549 6.76125 45.2328 7.1624 45.954 7.88332ZM0 26.9187C0 25.8988 0.405152 24.9206 1.12633 24.1995C1.8475 23.4783 2.82563 23.0731 3.84552 23.0731H11.5366C12.5565 23.0731 13.5346 23.4783 14.2558 24.1995C14.9769 24.9206 15.3821 25.8988 15.3821 26.9187C15.3821 27.9385 14.9769 28.9167 14.2558 29.6378C13.5346 30.359 12.5565 30.7642 11.5366 30.7642H3.84552C2.82563 30.7642 1.8475 30.359 1.12633 29.6378C0.405152 28.9167 0 27.9385 0 26.9187ZM18.7623 40.5164C19.1196 40.1591 19.403 39.735 19.5964 39.2681C19.7897 38.8013 19.8893 38.301 19.8893 37.7957C19.8893 37.2904 19.7897 36.7901 19.5964 36.3233C19.403 35.8565 19.1196 35.4323 18.7623 35.075C18.405 34.7177 17.9809 34.4343 17.514 34.2409C17.0472 34.0476 16.5469 33.9481 16.0416 33.9481C15.5363 33.9481 15.036 34.0476 14.5692 34.2409C14.1023 34.4343 13.6782 34.7177 13.3209 35.075L7.88332 40.5164C7.51603 40.8712 7.22307 41.2955 7.02153 41.7647C6.81999 42.2338 6.71391 42.7384 6.70947 43.249C6.70504 43.7597 6.80233 44.266 6.99569 44.7386C7.18905 45.2112 7.47459 45.6406 7.83565 46.0017C8.19672 46.3627 8.62608 46.6483 9.09868 46.8416C9.57128 47.035 10.0777 47.1323 10.5883 47.1278C11.0989 47.1234 11.6035 47.0173 12.0726 46.8158C12.5418 46.6142 12.9662 46.3213 13.3209 45.954L18.7623 40.5164Z" fill="#1789FB"/>
</svg>
