<svg width="21" height="25" viewBox="0 0 21 25" fill="none" xmlns="http://www.w3.org/2000/svg">
<path d="M19.25 24.5003H17.5V21.8753C17.4986 20.7154 17.0372 19.6034 16.2171 18.7833C15.3969 17.9631 14.2849 17.5017 13.125 17.5003H7.875C6.7151 17.5017 5.60311 17.9631 4.78294 18.7833C3.96277 19.6034 3.50139 20.7154 3.5 21.8753V24.5003H1.75V21.8753C1.75231 20.2516 2.39837 18.695 3.54653 17.5468C4.69469 16.3987 6.25126 15.7526 7.875 15.7503H13.125C14.7487 15.7526 16.3053 16.3987 17.4535 17.5468C18.6016 18.695 19.2477 20.2516 19.25 21.8753V24.5003ZM0.875 3.50031C0.642936 3.50031 0.420376 3.5925 0.256282 3.75659C0.0921874 3.92069 0 4.14325 0 4.37531V12.2503H1.75V4.37531C1.75 4.14325 1.65781 3.92069 1.49372 3.75659C1.32962 3.5925 1.10706 3.50031 0.875 3.50031Z" fill="white"/>
<path d="M0 0V1.75H4.375V7.875C4.375 9.49945 5.02031 11.0574 6.16897 12.206C7.31763 13.3547 8.87555 14 10.5 14C12.1245 14 13.6824 13.3547 14.831 12.206C15.9797 11.0574 16.625 9.49945 16.625 7.875V1.75H21V0H0ZM6.125 1.75H14.875V4.375H6.125V1.75ZM10.5 12.25C9.33968 12.25 8.22688 11.7891 7.40641 10.9686C6.58594 10.1481 6.125 9.03532 6.125 7.875V6.125H14.875V7.875C14.875 9.03532 14.4141 10.1481 13.5936 10.9686C12.7731 11.7891 11.6603 12.25 10.5 12.25Z" fill="white"/>
</svg>
