<svg width="37" height="37" viewBox="0 0 37 37" fill="none" xmlns="http://www.w3.org/2000/svg">
<g clip-path="url(#clip0_273_1162)">
<path d="M18.5305 7.71997C18.7505 7.82997 18.8205 7.99997 18.8205 8.23997C18.8105 9.06997 18.8205 9.88997 18.8205 10.72C18.8205 11.02 18.6705 11.19 18.4205 11.19C18.1705 11.19 18.0205 11.02 18.0205 10.72C18.0205 9.88997 18.0305 9.06997 18.0205 8.23997C18.0205 7.99997 18.0905 7.81997 18.3105 7.71997C18.3705 7.71997 18.4505 7.71997 18.5305 7.71997Z" fill="white"/>
<path d="M15.5903 16.0099C15.6003 15.7899 15.7703 15.6299 16.0003 15.6299C16.2303 15.6299 16.4003 15.8099 16.4003 16.0399C16.4003 16.2699 16.2103 16.4399 15.9803 16.4299C15.7503 16.4199 15.5803 16.2399 15.5903 16.0099Z" fill="white"/>
<path d="M18.4308 16.4299C17.5208 16.4299 16.8008 17.1399 16.8008 18.0399C16.8008 18.9399 17.5108 19.6599 18.4008 19.6599C19.3008 19.6599 20.0208 18.9499 20.0208 18.0599C20.0208 17.1599 19.3208 16.4299 18.4308 16.4299ZM18.4108 18.8499C17.9808 18.8499 17.6008 18.4699 17.6008 18.0399C17.6008 17.6099 17.9708 17.2499 18.3908 17.2399C18.8208 17.2299 19.2008 17.5999 19.2108 18.0399C19.2208 18.4699 18.8408 18.8499 18.4108 18.8499Z" fill="white"/>
<path d="M21.95 17.2399C22.01 17.4999 22.05 17.7699 22.03 17.9999C22.03 19.8599 20.71 21.3799 18.9 21.6299C16.92 21.9099 15.07 20.5199 14.8 18.5599C14.75 18.1799 14.75 17.8099 14.81 17.4399C14.85 17.1899 15.04 17.0199 15.26 17.0399C15.5 17.0699 15.66 17.2599 15.62 17.5299C15.52 18.1699 15.61 18.7899 15.91 19.3599C16.48 20.4299 17.63 20.9999 18.87 20.8199C20 20.6599 20.96 19.6999 21.18 18.5399C21.52 16.6899 19.94 15.0099 18.07 15.2499C17.85 15.2799 17.64 15.3299 17.43 15.3999C17.16 15.4799 16.95 15.3899 16.87 15.1599C16.79 14.9299 16.9 14.7299 17.16 14.6299C19.17 13.8599 21.51 15.1399 21.95 17.2399Z" fill="white"/>
<path d="M27.5704 17.7399C26.4504 16.2099 25.1004 14.9199 23.4904 13.9299C21.9404 12.9699 20.2704 12.3999 18.9004 12.3899C17.1204 12.3899 15.8704 12.6799 14.6704 13.2199C12.4604 14.2199 10.7104 15.7899 9.27043 17.7199C9.08043 17.9799 9.08043 18.0999 9.27043 18.3499C10.4804 19.9899 11.9404 21.3599 13.7204 22.3699C15.0204 23.1099 16.4104 23.5699 17.9004 23.6699C19.2504 23.7499 20.5404 23.5199 21.7904 23.0099C24.1904 22.0199 26.0604 20.3699 27.6004 18.3099C27.7404 18.1099 27.7304 17.9599 27.5704 17.7399ZM26.7004 18.1599C25.3104 19.9099 23.6704 21.3399 21.5904 22.2199C20.5704 22.6499 19.5104 22.8699 18.4304 22.8799C16.7004 22.8599 15.1604 22.3199 13.7304 21.4299C12.3404 20.5699 11.1704 19.4599 10.1604 18.1799C10.0804 18.0799 10.0604 18.0199 10.1504 17.9099C11.4304 16.3099 12.9304 14.9599 14.7904 14.0699C16.1904 13.3999 17.6604 13.0799 19.2204 13.2499C20.6404 13.3999 21.9404 13.9199 23.1504 14.6699C24.5204 15.5299 25.6804 16.6299 26.6904 17.8999C26.7304 17.9799 26.7904 18.0399 26.7004 18.1599Z" fill="white"/>
<path d="M18.8107 26.6399C18.8107 27.0699 18.8107 27.4999 18.8107 27.9299C18.8107 28.1999 18.6507 28.3699 18.4007 28.3699C18.1607 28.3699 18.0107 28.1999 18.0107 27.9299C18.0107 27.0599 18.0107 26.1999 18.0107 25.3299C18.0107 25.0699 18.1707 24.8999 18.4107 24.8999C18.6507 24.8999 18.8107 25.0699 18.8107 25.3299C18.8107 25.7599 18.8107 26.1999 18.8107 26.6399Z" fill="white"/>
<path d="M12.88 12.88C12.89 13.18 12.58 13.39 12.32 13.28C12.25 13.25 12.19 13.21 12.14 13.15C11.59 12.6 11.05 12.06 10.51 11.51C10.25 11.25 10.33 10.89 10.66 10.79C10.82 10.74 10.95 10.8 11.06 10.91C11.62 11.47 12.18 12.03 12.74 12.59C12.82 12.68 12.87 12.78 12.88 12.88Z" fill="white"/>
<path d="M24.3502 13.3201C24.1802 13.3001 24.0502 13.2301 23.9702 13.0701C23.8902 12.8901 23.9402 12.7401 24.0702 12.6101C24.3102 12.3601 24.5502 12.1301 24.7902 11.8801C25.1102 11.5601 25.4202 11.2401 25.7402 10.9301C25.9902 10.6901 26.3402 10.7701 26.4402 11.0901C26.4902 11.2401 26.4402 11.3701 26.3402 11.4801C25.7702 12.0601 25.1902 12.6301 24.6202 13.2001C24.5502 13.2801 24.4602 13.3101 24.3502 13.3201Z" fill="white"/>
<path d="M10.7808 25.7C10.4808 25.7 10.2708 25.4 10.3908 25.13C10.4208 25.05 10.4808 25 10.5308 24.94C11.0608 24.41 11.5908 23.88 12.1208 23.35C12.2408 23.23 12.3708 23.14 12.5508 23.18C12.8708 23.25 12.9808 23.62 12.7608 23.87C12.6108 24.04 12.4408 24.2 12.2808 24.36C11.8908 24.75 11.4908 25.15 11.1008 25.54C11.0008 25.63 10.8908 25.69 10.7808 25.7Z" fill="white"/>
<path d="M24.3505 23.1699C24.4805 23.1799 24.5805 23.2299 24.6705 23.3199C25.2105 23.8699 25.7605 24.4099 26.3105 24.9599C26.5205 25.1699 26.5305 25.3999 26.3505 25.5799C26.1705 25.7599 25.9405 25.7499 25.7305 25.5399C25.1805 24.9999 24.6405 24.4499 24.0905 23.8999C23.9605 23.7699 23.8905 23.6099 23.9705 23.4299C24.0505 23.2599 24.1805 23.1799 24.3505 23.1699Z" fill="white"/>
<path d="M15.5903 16.0099C15.6003 15.7899 15.7703 15.6299 16.0003 15.6299C16.2303 15.6299 16.4003 15.8099 16.4003 16.0399C16.4003 16.2699 16.2103 16.4399 15.9803 16.4299C15.7503 16.4199 15.5803 16.2399 15.5903 16.0099Z" fill="white"/>
<path d="M18.4308 16.4299C17.5208 16.4299 16.8008 17.1399 16.8008 18.0399C16.8008 18.9399 17.5108 19.6599 18.4008 19.6599C19.3008 19.6599 20.0208 18.9499 20.0208 18.0599C20.0208 17.1599 19.3208 16.4299 18.4308 16.4299ZM18.4108 18.8499C17.9808 18.8499 17.6008 18.4699 17.6008 18.0399C17.6008 17.6099 17.9708 17.2499 18.3908 17.2399C18.8208 17.2299 19.2008 17.5999 19.2108 18.0399C19.2208 18.4699 18.8408 18.8499 18.4108 18.8499Z" fill="white"/>
<path d="M22.0408 18.0001C22.0408 19.8601 20.7207 21.3801 18.9107 21.6301C16.9307 21.9101 15.0807 20.5201 14.8107 18.5601C14.7607 18.1801 14.7607 17.8101 14.8207 17.4401C14.8607 17.1901 15.0507 17.0201 15.2707 17.0401C15.5107 17.0701 15.6707 17.2601 15.6307 17.5301C15.5307 18.1701 15.6207 18.7901 15.9207 19.3601C16.4907 20.4301 17.6407 21.0001 18.8807 20.8201C20.0107 20.6601 20.9707 19.7001 21.1907 18.5401C21.5307 16.6901 19.9507 15.0101 18.0807 15.2501C17.8607 15.2801 17.6507 15.3301 17.4407 15.4001C17.1707 15.4801 16.9607 15.3901 16.8807 15.1601C16.8007 14.9301 16.9107 14.7301 17.1707 14.6301C19.1707 13.8601 21.5107 15.1401 21.9607 17.2501C22.0107 17.5101 22.0508 17.7701 22.0408 18.0001Z" fill="white"/>
<path d="M22.0408 18.0001C22.0408 19.8601 20.7207 21.3801 18.9107 21.6301C16.9307 21.9101 15.0807 20.5201 14.8107 18.5601C14.7607 18.1801 14.7607 17.8101 14.8207 17.4401C14.8607 17.1901 15.0507 17.0201 15.2707 17.0401C15.5107 17.0701 15.6707 17.2601 15.6307 17.5301C15.5307 18.1701 15.6207 18.7901 15.9207 19.3601C16.4907 20.4301 17.6407 21.0001 18.8807 20.8201C20.0107 20.6601 20.9707 19.7001 21.1907 18.5401C21.5307 16.6901 19.9507 15.0101 18.0807 15.2501C17.8607 15.2801 17.6507 15.3301 17.4407 15.4001C17.1707 15.4801 16.9607 15.3901 16.8807 15.1601C16.8007 14.9301 16.9107 14.7301 17.1707 14.6301C19.1707 13.8601 21.5107 15.1401 21.9607 17.2501C22.0107 17.5101 22.0508 17.7701 22.0408 18.0001Z" fill="white"/>
<path d="M18.4308 16.4299C17.5208 16.4299 16.8008 17.1399 16.8008 18.0399C16.8008 18.9399 17.5108 19.6599 18.4008 19.6599C19.3008 19.6599 20.0208 18.9499 20.0208 18.0599C20.0208 17.1599 19.3208 16.4299 18.4308 16.4299ZM18.4108 18.8499C17.9808 18.8499 17.6008 18.4699 17.6008 18.0399C17.6008 17.6099 17.9708 17.2499 18.3908 17.2399C18.8208 17.2299 19.2008 17.5999 19.2108 18.0399C19.2208 18.4699 18.8408 18.8499 18.4108 18.8499Z" fill="white"/>
<path d="M16.3905 16.0399C16.3905 16.2699 16.2005 16.4399 15.9705 16.4299C15.7405 16.4199 15.5705 16.2399 15.5805 16.0099C15.5905 15.7899 15.7605 15.6299 15.9905 15.6299C16.2205 15.6299 16.4005 15.7999 16.3905 16.0399Z" fill="white"/>
<path d="M18.04 35.08C27.4509 35.08 35.08 27.4509 35.08 18.04C35.08 8.62907 27.4509 1 18.04 1C8.62907 1 1 8.62907 1 18.04C1 27.4509 8.62907 35.08 18.04 35.08Z" stroke="white" stroke-width="2" stroke-miterlimit="10"/>
</g>
<defs>
<clipPath id="clip0_273_1162">
<rect width="36.08" height="36.08" fill="white"/>
</clipPath>
</defs>
</svg>
