<svg width="21" height="26" viewBox="0 0 21 26" fill="none" xmlns="http://www.w3.org/2000/svg">
<path d="M1 20.2V5.80005M20.2 5.80005V20.2" stroke="white" stroke-width="1.5" stroke-linecap="round"/>
<path d="M20.2 13C20.2 15.652 15.9016 17.8 10.6 17.8C5.2984 17.8 1 15.652 1 13M20.2 20.2C20.2 22.852 15.9016 25 10.6 25C5.2984 25 1 22.852 1 20.2M10.6 10.6C15.9016 10.6 20.2 8.452 20.2 5.8C20.2 3.148 15.9016 1 10.6 1C5.2984 1 1 3.148 1 5.8C1 8.452 5.2984 10.6 10.6 10.6Z" stroke="white" stroke-width="1.5"/>
</svg>
